<?xml version="1.0" encoding="utf-8"?>
<!-- Generator: Adobe Illustrator 16.0.0, SVG Export Plug-In . SVG Version: 6.00 Build 0)  -->
<!DOCTYPE svg PUBLIC "-//W3C//DTD SVG 1.1//EN" "http://www.w3.org/Graphics/SVG/1.1/DTD/svg11.dtd">
<svg version="1.1" id="圖層_1" xmlns="http://www.w3.org/2000/svg" xmlns:xlink="http://www.w3.org/1999/xlink" x="0px" y="0px"
	 width="1200px" height="1200px" viewBox="0 0 1200 1200" enable-background="new 0 0 1200 1200" xml:space="preserve">
<line fill="none" stroke="#6D6D6D" stroke-miterlimit="10" x1="0" y1="2" x2="0" y2="1200"/>
<line fill="none" stroke="#6D6D6D" stroke-miterlimit="10" x1="1200" y1="1200" x2="0" y2="1200"/>
<line fill="none" stroke="#6D6D6D" stroke-miterlimit="10" x1="0" y1="2" x2="46" y2="2"/>
<line fill="none" stroke="#6D6D6D" stroke-miterlimit="10" x1="1201" y1="1153" x2="1201" y2="1199"/>
<line fill="none" stroke="#6D6D6D" stroke-miterlimit="10" x1="0" y1="120" x2="14" y2="120"/>
<line fill="none" stroke="#6D6D6D" stroke-miterlimit="10" x1="0" y1="240" x2="14" y2="240"/>
<line fill="none" stroke="#6D6D6D" stroke-miterlimit="10" x1="0" y1="362" x2="14" y2="362"/>
<line fill="none" stroke="#6D6D6D" stroke-miterlimit="10" x1="0" y1="482" x2="14" y2="482"/>
<line fill="none" stroke="#6D6D6D" stroke-miterlimit="10" x1="0" y1="600" x2="24" y2="600"/>
<line fill="none" stroke="#6D6D6D" stroke-miterlimit="10" x1="0" y1="720" x2="14" y2="720"/>
<line fill="none" stroke="#6D6D6D" stroke-miterlimit="10" x1="0" y1="842" x2="14" y2="842"/>
<line fill="none" stroke="#6D6D6D" stroke-miterlimit="10" x1="0" y1="958" x2="14" y2="958"/>
<line fill="none" stroke="#6D6D6D" stroke-miterlimit="10" x1="0" y1="1080" x2="14" y2="1080"/>
<line fill="none" stroke="#6D6D6D" stroke-miterlimit="10" x1="1080" y1="1186" x2="1080" y2="1200"/>
<line fill="none" stroke="#6D6D6D" stroke-miterlimit="10" x1="962" y1="1186" x2="962" y2="1200"/>
<line fill="none" stroke="#6D6D6D" stroke-miterlimit="10" x1="840" y1="1186" x2="840" y2="1200"/>
<line fill="none" stroke="#6D6D6D" stroke-miterlimit="10" x1="720" y1="1186" x2="720" y2="1200"/>
<line fill="none" stroke="#6D6D6D" stroke-miterlimit="10" x1="600" y1="1176" x2="600" y2="1200"/>
<line fill="none" stroke="#6D6D6D" stroke-miterlimit="10" x1="482" y1="1186" x2="482" y2="1200"/>
<line fill="none" stroke="#6D6D6D" stroke-miterlimit="10" x1="360" y1="1186" x2="360" y2="1200"/>
<line fill="none" stroke="#6D6D6D" stroke-miterlimit="10" x1="242" y1="1186" x2="242" y2="1200"/>
<line fill="none" stroke="#6D6D6D" stroke-miterlimit="10" x1="120" y1="1186" x2="120" y2="1200"/>
<g>
	<g>
		<path fill="#7C7C7C" d="M132.246,1182.83c0.492-0.012,0.938-0.039,1.341-0.081c0.402-0.042,0.75-0.138,1.044-0.288
			c0.294-0.149,0.54-0.387,0.738-0.711c0.198-0.324,0.339-0.774,0.423-1.35h0.918v12.6h-1.134v-9.36h-3.33V1182.83L132.246,1182.83z
			"/>
		<path fill="#7C7C7C" d="M259.254,1193h-8.298c0.012-0.624,0.123-1.176,0.333-1.656c0.21-0.479,0.48-0.911,0.81-1.296
			c0.33-0.384,0.705-0.733,1.125-1.053c0.42-0.318,0.852-0.624,1.296-0.918s0.882-0.591,1.314-0.892
			c0.432-0.304,0.828-0.634,1.188-0.989c0.348-0.353,0.609-0.705,0.783-1.071c0.174-0.366,0.261-0.801,0.261-1.305
			c0-0.408-0.075-0.771-0.225-1.09c-0.15-0.317-0.354-0.591-0.612-0.813c-0.258-0.222-0.558-0.39-0.9-0.504
			c-0.342-0.114-0.705-0.171-1.089-0.171c-0.516,0-0.957,0.096-1.323,0.288c-0.366,0.188-0.663,0.446-0.891,0.771
			s-0.393,0.696-0.495,1.116s-0.147,0.864-0.135,1.332h-1.134c-0.012-0.647,0.063-1.245,0.225-1.791
			c0.162-0.546,0.411-1.019,0.747-1.413s0.759-0.704,1.269-0.927c0.51-0.226,1.107-0.333,1.791-0.333
			c0.552,0,1.065,0.074,1.539,0.225s0.885,0.376,1.233,0.676c0.348,0.304,0.624,0.669,0.828,1.106
			c0.204,0.437,0.306,0.951,0.306,1.539c0,0.524-0.087,1.008-0.261,1.438c-0.174,0.436-0.408,0.828-0.702,1.188
			c-0.294,0.356-0.633,0.689-1.017,0.999c-0.384,0.307-0.78,0.592-1.188,0.854c-0.313,0.204-0.669,0.431-1.071,0.677
			c-0.402,0.245-0.792,0.521-1.17,0.817s-0.711,0.627-0.999,0.98c-0.288,0.353-0.468,0.737-0.54,1.159h7.002V1193L259.254,1193z"/>
		<path fill="#7C7C7C" d="M371.844,1188.986c-0.021,0.504,0.033,0.96,0.171,1.363c0.142,0.408,0.346,0.76,0.612,1.049
			c0.27,0.283,0.605,0.513,1.008,0.675c0.403,0.162,0.855,0.243,1.359,0.243c0.408,0,0.807-0.063,1.197-0.185
			c0.39-0.119,0.731-0.3,1.031-0.54c0.304-0.236,0.54-0.527,0.724-0.873c0.18-0.342,0.27-0.736,0.27-1.193
			c0-0.443-0.078-0.834-0.23-1.172c-0.156-0.337-0.372-0.612-0.648-0.839c-0.276-0.222-0.597-0.387-0.963-0.493
			c-0.366-0.105-0.759-0.16-1.179-0.16h-0.954v-0.953h0.954c0.285,0,0.585-0.042,0.891-0.126s0.582-0.226,0.828-0.414
			c0.246-0.192,0.447-0.437,0.603-0.72c0.156-0.288,0.234-0.635,0.234-1.026c0-0.408-0.072-0.762-0.216-1.063
			c-0.146-0.3-0.343-0.549-0.598-0.744c-0.252-0.196-0.546-0.345-0.882-0.435s-0.688-0.135-1.062-0.135
			c-0.468,0-0.882,0.078-1.242,0.233c-0.36,0.152-0.664,0.375-0.909,0.653c-0.246,0.282-0.429,0.618-0.549,1.011
			c-0.12,0.392-0.174,0.816-0.162,1.285h-1.134c0-0.589,0.093-1.138,0.279-1.646c0.186-0.51,0.446-0.948,0.792-1.313
			c0.342-0.363,0.759-0.651,1.251-0.861c0.488-0.21,1.044-0.315,1.652-0.315c0.492,0,0.976,0.063,1.44,0.189
			s0.885,0.313,1.251,0.573c0.366,0.261,0.66,0.594,0.882,0.999c0.222,0.406,0.333,0.891,0.333,1.438
			c0,0.686-0.183,1.277-0.549,1.782c-0.366,0.504-0.893,0.84-1.575,1.008v0.036c0.828,0.132,1.467,0.479,1.917,1.035
			s0.675,1.251,0.675,2.076c0,0.611-0.117,1.156-0.351,1.641c-0.234,0.479-0.549,0.882-0.945,1.206
			c-0.396,0.323-0.854,0.567-1.386,0.737c-0.528,0.168-1.08,0.252-1.656,0.252c-0.646,0-1.245-0.1-1.791-0.287
			c-0.546-0.192-1.014-0.474-1.403-0.838c-0.391-0.365-0.685-0.815-0.883-1.354c-0.194-0.532-0.271-1.137-0.225-1.809h1.134
			L371.844,1188.986L371.844,1188.986z"/>
		<path fill="#7C7C7C" d="M490.464,1188.77l5.832-8.365h1.026v8.514h1.89v0.954h-1.89v3.13h-1.044v-3.132h-5.814V1188.77z
			 M496.278,1188.914v-6.858h-0.036l-4.752,6.858H496.278z"/>
		<path fill="#7C7C7C" d="M611.514,1189.4c0.016,0.432,0.104,0.826,0.266,1.188c0.161,0.362,0.381,0.669,0.652,0.927
			c0.276,0.263,0.604,0.456,0.977,0.599c0.371,0.138,0.771,0.207,1.205,0.207c0.479,0,0.916-0.096,1.306-0.279
			c0.39-0.188,0.724-0.438,0.999-0.747c0.275-0.313,0.486-0.678,0.63-1.098c0.146-0.421,0.216-0.858,0.216-1.314
			c0-0.468-0.08-0.897-0.238-1.296c-0.162-0.396-0.389-0.741-0.666-1.035c-0.283-0.294-0.621-0.521-1.021-0.689
			c-0.396-0.168-0.828-0.252-1.296-0.252c-0.563,0-1.095,0.13-1.593,0.388s-0.903,0.627-1.216,1.104h-0.976l1.229-6.534h6.299v1.047
			h-5.508l-0.813,4.177l0.036,0.036c0.313-0.372,0.711-0.66,1.197-0.864c0.482-0.204,0.975-0.306,1.467-0.306
			c0.647,0,1.231,0.104,1.755,0.319c0.522,0.22,0.966,0.521,1.332,0.9s0.646,0.843,0.847,1.377c0.197,0.534,0.298,1.119,0.298,1.755
			c0,0.612-0.112,1.179-0.344,1.701c-0.228,0.521-0.54,0.972-0.937,1.35c-0.397,0.378-0.86,0.68-1.396,0.896
			c-0.533,0.216-1.102,0.321-1.701,0.321c-0.588,0-1.131-0.091-1.629-0.271c-0.498-0.182-0.93-0.437-1.296-0.766
			s-0.657-0.734-0.872-1.218c-0.217-0.479-0.331-1.021-0.343-1.618L611.514,1189.4L611.514,1189.4z"/>
		<path fill="#7C7C7C" d="M737.496,1183.586c-0.097-0.695-0.375-1.26-0.837-1.691c-0.462-0.433-1.063-0.646-1.791-0.646
			c-0.732,0-1.326,0.188-1.782,0.558c-0.456,0.372-0.81,0.845-1.062,1.404c-0.253,0.564-0.425,1.173-0.508,1.827
			c-0.085,0.654-0.127,1.271-0.127,1.845h0.036c0.3-0.624,0.753-1.128,1.359-1.512c0.604-0.384,1.269-0.576,1.989-0.576
			c0.622,0,1.189,0.105,1.71,0.315c0.516,0.21,0.953,0.501,1.313,0.873c0.36,0.37,0.644,0.813,0.837,1.331
			c0.198,0.517,0.298,1.078,0.298,1.688c0,0.612-0.104,1.183-0.313,1.701c-0.21,0.521-0.504,0.973-0.882,1.35
			c-0.378,0.382-0.828,0.68-1.354,0.896c-0.521,0.216-1.095,0.323-1.719,0.323c-0.771,0-1.428-0.116-1.979-0.354
			c-0.553-0.232-1.009-0.618-1.364-1.15c-0.36-0.531-0.627-1.229-0.805-2.076c-0.175-0.854-0.262-1.895-0.262-3.114
			c0-0.252,0.016-0.582,0.045-0.99c0.03-0.407,0.102-0.843,0.207-1.305c0.108-0.462,0.262-0.934,0.459-1.404
			c0.198-0.474,0.462-0.901,0.792-1.287c0.33-0.384,0.741-0.692,1.233-0.936c0.488-0.241,1.08-0.36,1.764-0.36
			c1.116,0,2.007,0.271,2.673,0.819c0.666,0.546,1.065,1.37,1.197,2.475L737.496,1183.586L737.496,1183.586z M734.76,1185.746
			c-0.492,0-0.933,0.087-1.322,0.261c-0.391,0.174-0.721,0.411-0.986,0.711c-0.271,0.302-0.479,0.651-0.612,1.054
			c-0.138,0.401-0.207,0.841-0.207,1.309c0,0.441,0.063,0.864,0.181,1.26c0.119,0.396,0.313,0.741,0.566,1.035
			s0.585,0.525,0.981,0.693c0.396,0.168,0.866,0.252,1.422,0.252c0.439,0,0.852-0.09,1.224-0.266
			c0.372-0.174,0.693-0.404,0.963-0.701c0.271-0.293,0.479-0.64,0.621-1.031c0.146-0.396,0.216-0.813,0.216-1.242
			c0-0.456-0.065-0.888-0.207-1.296c-0.138-0.408-0.336-0.765-0.594-1.063s-0.576-0.537-0.954-0.711
			S735.24,1185.746,734.76,1185.746z"/>
		<path fill="#7C7C7C" d="M850.266,1180.563h8.104v1.048c-0.396,0.403-0.87,0.957-1.422,1.646c-0.556,0.69-1.089,1.512-1.61,2.466
			c-0.521,0.954-0.979,2.04-1.368,3.261c-0.391,1.22-0.621,2.561-0.689,4.021h-1.228c0.072-1.068,0.222-2.076,0.44-3.024
			c0.223-0.943,0.54-1.874,0.954-2.776c0.414-0.906,0.93-1.815,1.548-2.729c0.618-0.911,1.364-1.865,2.241-2.857h-6.97V1180.563
			L850.266,1180.563z"/>
		<path fill="#7C7C7C" d="M977.977,1183.442c0,0.684-0.181,1.269-0.539,1.755c-0.357,0.481-0.861,0.824-1.514,1.017v0.036
			c0.816,0.168,1.449,0.534,1.899,1.098c0.45,0.564,0.675,1.272,0.675,2.124c0,0.641-0.114,1.191-0.342,1.665
			c-0.229,0.479-0.54,0.87-0.938,1.188c-0.396,0.317-0.854,0.555-1.387,0.711c-0.528,0.155-1.086,0.233-1.674,0.233
			s-1.146-0.078-1.674-0.233c-0.528-0.156-0.99-0.393-1.39-0.711c-0.396-0.318-0.709-0.714-0.937-1.188
			c-0.229-0.474-0.342-1.024-0.342-1.665c0.021-0.827,0.261-1.534,0.711-2.124c0.447-0.588,1.063-0.953,1.845-1.098v-0.036
			c-0.66-0.204-1.167-0.543-1.521-1.017c-0.354-0.479-0.528-1.063-0.528-1.755c0-0.54,0.107-1.013,0.333-1.404
			c0.222-0.396,0.513-0.724,0.873-0.981c0.356-0.258,0.768-0.445,1.224-0.571s0.918-0.189,1.387-0.189
			c0.471,0,0.934,0.063,1.39,0.189s0.863,0.313,1.229,0.571c0.365,0.263,0.659,0.585,0.882,0.981
			C977.865,1182.434,977.977,1182.902,977.977,1183.442z M974.16,1192.316c0.44,0,0.861-0.062,1.251-0.172
			c0.39-0.113,0.729-0.287,1.018-0.521c0.287-0.234,0.52-0.531,0.688-0.891c0.168-0.36,0.252-0.78,0.252-1.265
			c0-0.456-0.087-0.854-0.265-1.192c-0.175-0.345-0.404-0.631-0.698-0.864c-0.294-0.234-0.641-0.408-1.026-0.522
			c-0.39-0.109-0.795-0.162-1.215-0.148c-0.436-0.014-0.843,0.039-1.232,0.148c-0.391,0.114-0.729,0.285-1.018,0.518
			c-0.288,0.228-0.521,0.513-0.693,0.854c-0.172,0.344-0.261,0.747-0.261,1.216c0,0.472,0.084,0.884,0.252,1.241
			c0.168,0.36,0.396,0.657,0.686,0.895c0.288,0.23,0.63,0.41,1.02,0.527C973.299,1192.256,973.716,1192.316,974.16,1192.316z
			 M974.16,1185.782c0.348,0.012,0.685-0.027,1.008-0.117c0.324-0.09,0.609-0.234,0.855-0.432c0.242-0.198,0.439-0.444,0.594-0.738
			c0.147-0.294,0.225-0.646,0.225-1.053c0-0.36-0.068-0.682-0.207-0.954c-0.138-0.276-0.326-0.504-0.563-0.688
			c-0.24-0.18-0.525-0.313-0.855-0.414c-0.33-0.096-0.681-0.144-1.053-0.144c-0.352,0-0.688,0.048-1.008,0.144
			c-0.324,0.101-0.612,0.234-0.864,0.414c-0.252,0.185-0.453,0.408-0.604,0.688c-0.146,0.272-0.226,0.594-0.226,0.954
			c0,0.42,0.078,0.776,0.234,1.079c0.151,0.301,0.356,0.547,0.608,0.734c0.252,0.192,0.54,0.33,0.863,0.414
			C973.494,1185.758,973.824,1185.794,974.16,1185.782z"/>
		<path fill="#7C7C7C" d="M1091.016,1189.976c0.1,0.696,0.375,1.265,0.838,1.692c0.465,0.431,1.063,0.648,1.791,0.648
			c0.731,0,1.325-0.188,1.781-0.563s0.813-0.84,1.063-1.404c0.252-0.563,0.42-1.172,0.504-1.822c0.083-0.654,0.126-1.271,0.126-1.85
			h-0.036c-0.3,0.624-0.753,1.129-1.359,1.513c-0.604,0.388-1.269,0.575-1.985,0.575c-0.64,0-1.209-0.104-1.723-0.313
			c-0.51-0.21-0.94-0.501-1.305-0.873s-0.639-0.816-0.837-1.332c-0.198-0.52-0.297-1.08-0.297-1.692c0-0.61,0.104-1.179,0.313-1.7
			c0.209-0.521,0.504-0.973,0.882-1.351s0.828-0.675,1.354-0.894c0.521-0.216,1.095-0.321,1.719-0.321
			c0.771,0,1.428,0.114,1.979,0.351c0.553,0.234,1.009,0.618,1.364,1.152c0.36,0.534,0.627,1.228,0.806,2.079
			c0.174,0.853,0.261,1.89,0.261,3.111c0,0.252-0.018,0.582-0.045,0.988c-0.03,0.408-0.104,0.844-0.207,1.308
			c-0.108,0.464-0.265,0.932-0.459,1.401c-0.198,0.476-0.462,0.903-0.792,1.287c-0.33,0.385-0.741,0.696-1.233,0.938
			c-0.491,0.237-1.08,0.355-1.764,0.355c-1.116,0-2.007-0.271-2.673-0.814c-0.666-0.55-1.065-1.371-1.197-2.479L1091.016,1189.976
			L1091.016,1189.976z M1093.752,1187.816c0.492,0,0.933-0.088,1.323-0.266c0.39-0.174,0.72-0.406,0.989-0.711
			c0.271-0.3,0.475-0.646,0.608-1.053c0.138-0.403,0.207-0.837,0.207-1.307c0-0.442-0.061-0.862-0.18-1.263
			c-0.12-0.396-0.313-0.737-0.567-1.034c-0.257-0.293-0.585-0.521-0.979-0.689c-0.396-0.168-0.87-0.252-1.426-0.252
			c-0.453,0-0.863,0.087-1.229,0.261s-0.687,0.408-0.954,0.702c-0.27,0.294-0.477,0.639-0.621,1.035
			c-0.144,0.396-0.216,0.81-0.216,1.241c0,0.457,0.068,0.889,0.207,1.297c0.138,0.405,0.336,0.762,0.594,1.062
			c0.261,0.303,0.576,0.537,0.954,0.711C1092.843,1187.729,1093.271,1187.816,1093.752,1187.816z"/>
	</g>
</g>
<g>
	<g>
		<path fill="#7C7C7C" d="M15.598,138.552c-0.696,0.096-1.26,0.375-1.692,0.837c-0.432,0.461-0.648,1.059-0.648,1.791
			c0,0.731,0.186,1.326,0.558,1.782s0.84,0.81,1.404,1.062s1.173,0.42,1.827,0.504c0.654,0.084,1.269,0.126,1.845,0.126v-0.036
			c-0.624-0.3-1.128-0.753-1.512-1.359c-0.384-0.606-0.576-1.269-0.576-1.989c0-0.636,0.105-1.209,0.315-1.719
			c0.21-0.51,0.501-0.945,0.873-1.305s0.816-0.639,1.332-0.837c0.516-0.198,1.08-0.297,1.692-0.297c0.612,0,1.179,0.105,1.701,0.315
			c0.522,0.21,0.972,0.504,1.35,0.882s0.675,0.828,0.891,1.35s0.324,1.095,0.324,1.719c0,0.768-0.117,1.428-0.351,1.98
			c-0.234,0.552-0.618,1.008-1.152,1.368c-0.534,0.36-1.227,0.627-2.079,0.801c-0.852,0.174-1.89,0.261-3.114,0.261
			c-0.252,0-0.583-0.015-0.99-0.045c-0.408-0.03-0.843-0.099-1.305-0.207s-0.93-0.261-1.404-0.459
			c-0.474-0.198-0.903-0.462-1.287-0.792c-0.384-0.331-0.696-0.741-0.936-1.233c-0.24-0.492-0.36-1.08-0.36-1.764
			c0-1.116,0.273-2.007,0.819-2.673s1.371-1.065,2.475-1.197V138.552z M17.758,141.288c0,0.492,0.087,0.933,0.261,1.323
			c0.174,0.39,0.411,0.72,0.711,0.99s0.651,0.474,1.053,0.612c0.402,0.138,0.837,0.207,1.305,0.207c0.444,0,0.864-0.06,1.26-0.18
			c0.396-0.12,0.741-0.31,1.035-0.567c0.294-0.258,0.525-0.585,0.693-0.981s0.252-0.87,0.252-1.422c0-0.456-0.087-0.867-0.261-1.233
			c-0.174-0.366-0.408-0.684-0.702-0.954c-0.294-0.27-0.639-0.477-1.035-0.621s-0.81-0.216-1.242-0.216
			c-0.457,0-0.888,0.069-1.296,0.207c-0.408,0.138-0.762,0.335-1.062,0.594c-0.3,0.258-0.537,0.576-0.711,0.954
			S17.758,140.808,17.758,141.288z"/>
		<path fill="#7C7C7C" d="M22.132,265.128c-0.684,0-1.269-0.18-1.755-0.54c-0.486-0.36-0.825-0.864-1.017-1.512h-0.036
			c-0.168,0.816-0.534,1.449-1.098,1.899c-0.564,0.45-1.272,0.675-2.124,0.675c-0.636,0-1.191-0.114-1.665-0.342
			s-0.87-0.54-1.188-0.936s-0.555-0.858-0.711-1.386c-0.156-0.528-0.234-1.086-0.234-1.674s0.078-1.146,0.234-1.674
			c0.156-0.528,0.393-0.99,0.711-1.386s0.714-0.708,1.188-0.936s1.029-0.342,1.665-0.342c0.828,0.024,1.536,0.261,2.124,0.711
			c0.588,0.45,0.954,1.065,1.098,1.845h0.036c0.204-0.66,0.542-1.167,1.017-1.521c0.474-0.354,1.059-0.531,1.755-0.531
			c0.54,0,1.008,0.111,1.404,0.333s0.723,0.513,0.981,0.873c0.258,0.36,0.45,0.768,0.576,1.224c0.126,0.456,0.189,0.918,0.189,1.386
			s-0.063,0.93-0.189,1.386c-0.126,0.456-0.318,0.867-0.576,1.233c-0.258,0.366-0.585,0.66-0.981,0.882
			S22.672,265.128,22.132,265.128z M13.258,261.312c0,0.444,0.057,0.861,0.171,1.251c0.114,0.39,0.288,0.729,0.522,1.017
			c0.234,0.288,0.531,0.516,0.891,0.684c0.36,0.168,0.78,0.252,1.26,0.252c0.456,0,0.855-0.087,1.197-0.261
			c0.342-0.174,0.63-0.408,0.864-0.702c0.234-0.294,0.408-0.636,0.522-1.026c0.114-0.39,0.165-0.795,0.153-1.215
			c0.012-0.432-0.039-0.843-0.153-1.233c-0.114-0.39-0.285-0.729-0.513-1.017s-0.513-0.519-0.855-0.693
			c-0.342-0.174-0.747-0.261-1.215-0.261c-0.468,0-0.882,0.084-1.242,0.252c-0.36,0.168-0.657,0.396-0.891,0.684
			c-0.234,0.288-0.411,0.627-0.531,1.017S13.258,260.868,13.258,261.312z M19.792,261.312c-0.012,0.348,0.027,0.684,0.117,1.008
			c0.09,0.324,0.234,0.609,0.432,0.855c0.198,0.246,0.444,0.444,0.738,0.594s0.645,0.225,1.053,0.225
			c0.36,0,0.678-0.069,0.954-0.207c0.276-0.138,0.504-0.327,0.684-0.567c0.18-0.24,0.318-0.525,0.414-0.855
			c0.096-0.33,0.144-0.681,0.144-1.053c0-0.348-0.048-0.684-0.144-1.008c-0.096-0.324-0.234-0.612-0.414-0.864
			s-0.408-0.453-0.684-0.603s-0.594-0.225-0.954-0.225c-0.42,0-0.78,0.078-1.08,0.234c-0.3,0.156-0.546,0.36-0.738,0.612
			s-0.331,0.54-0.414,0.864C19.816,260.646,19.78,260.976,19.792,261.312z"/>
		<path fill="#7C7C7C" d="M25.012,377.034v8.1h-1.044c-0.408-0.396-0.957-0.87-1.647-1.422c-0.69-0.552-1.512-1.089-2.466-1.611
			s-2.04-0.978-3.258-1.368c-1.218-0.39-2.559-0.621-4.023-0.693v-1.224c1.068,0.072,2.076,0.219,3.024,0.441
			c0.948,0.222,1.875,0.54,2.781,0.954c0.906,0.414,1.815,0.93,2.727,1.548c0.912,0.618,1.866,1.365,2.862,2.241v-6.966H25.012
			L25.012,377.034z"/>
		<path fill="#7C7C7C" d="M21.988,503.88c0.696-0.097,1.26-0.375,1.692-0.837c0.432-0.462,0.648-1.06,0.648-1.791
			c0-0.732-0.186-1.326-0.558-1.782s-0.84-0.81-1.404-1.062c-0.564-0.252-1.173-0.421-1.827-0.504
			c-0.654-0.085-1.269-0.127-1.845-0.127v0.032c0.624,0.304,1.128,0.757,1.512,1.359c0.384,0.605,0.576,1.271,0.576,1.989
			c0,0.623-0.105,1.189-0.315,1.71c-0.21,0.516-0.501,0.954-0.873,1.313c-0.372,0.36-0.816,0.644-1.332,0.839
			c-0.516,0.196-1.08,0.3-1.692,0.3c-0.612,0-1.179-0.105-1.701-0.315s-0.972-0.504-1.35-0.882s-0.675-0.828-0.891-1.353
			c-0.216-0.521-0.324-1.097-0.324-1.721c0-0.768,0.117-1.428,0.351-1.979c0.234-0.557,0.618-1.012,1.152-1.368
			c0.534-0.36,1.227-0.627,2.079-0.801c0.852-0.179,1.89-0.266,3.114-0.266c0.252,0,0.582,0.02,0.99,0.046
			c0.408,0.029,0.843,0.103,1.305,0.206c0.461,0.108,0.93,0.266,1.404,0.46c0.474,0.197,0.903,0.463,1.287,0.791
			c0.384,0.33,0.696,0.741,0.936,1.233c0.24,0.492,0.36,1.08,0.36,1.764c0,1.116-0.273,2.009-0.819,2.675s-1.371,1.063-2.475,1.195
			V503.88z M19.828,501.144c0-0.488-0.087-0.933-0.261-1.318c-0.174-0.395-0.411-0.725-0.711-0.99
			c-0.3-0.271-0.651-0.475-1.053-0.612c-0.402-0.138-0.837-0.207-1.305-0.207c-0.444,0-0.864,0.063-1.26,0.184
			s-0.741,0.31-1.035,0.563s-0.525,0.585-0.693,0.981c-0.168,0.396-0.252,0.869-0.252,1.422c0,0.443,0.087,0.852,0.261,1.224
			s0.408,0.693,0.702,0.964c0.294,0.271,0.639,0.479,1.035,0.62c0.396,0.146,0.81,0.22,1.242,0.22c0.456,0,0.888-0.069,1.296-0.207
			c0.408-0.142,0.762-0.338,1.062-0.598c0.3-0.258,0.537-0.574,0.711-0.954C19.741,502.053,19.828,501.624,19.828,501.144z"/>
		<path fill="#7C7C7C" d="M16.174,617.515c-0.432,0.016-0.828,0.103-1.188,0.265c-0.36,0.161-0.669,0.381-0.927,0.653
			c-0.258,0.275-0.456,0.604-0.594,0.976c-0.138,0.372-0.207,0.771-0.207,1.206c0,0.479,0.093,0.915,0.279,1.305
			c0.186,0.391,0.435,0.724,0.747,0.999c0.312,0.276,0.678,0.486,1.098,0.63c0.42,0.146,0.858,0.217,1.314,0.217
			c0.468,0,0.9-0.081,1.296-0.241s0.741-0.387,1.035-0.666c0.294-0.28,0.525-0.619,0.693-1.02c0.168-0.396,0.252-0.827,0.252-1.296
			c0-0.563-0.129-1.095-0.387-1.593s-0.627-0.903-1.107-1.217v-0.974l6.534,1.226v6.302h-1.044v-5.508l-4.176-0.813L19.756,618
			c0.372,0.313,0.66,0.711,0.864,1.197c0.204,0.482,0.306,0.975,0.306,1.467c0,0.648-0.108,1.232-0.324,1.755
			c-0.216,0.522-0.516,0.966-0.9,1.332c-0.384,0.366-0.843,0.648-1.377,0.847c-0.534,0.198-1.119,0.297-1.755,0.297
			c-0.612,0-1.179-0.11-1.701-0.342c-0.522-0.229-0.972-0.54-1.35-0.937c-0.378-0.397-0.675-0.861-0.891-1.396
			s-0.324-1.102-0.324-1.701c0-0.588,0.09-1.131,0.27-1.629c0.18-0.498,0.435-0.931,0.765-1.296c0.33-0.366,0.735-0.657,1.215-0.873
			s1.02-0.33,1.62-0.342V617.515z"/>
		<path fill="#7C7C7C" d="M16.804,736.08l8.37,5.832v1.025H16.66v1.891h-0.954v-1.891h-3.132v-1.048h3.132v-5.813L16.804,736.08
			L16.804,736.08z M16.66,741.894h6.858v-0.031l-6.858-4.752V741.894z"/>
		<path fill="#7C7C7C" d="M16.588,857.075c-0.504-0.023-0.96,0.033-1.368,0.172c-0.408,0.138-0.756,0.342-1.044,0.611
			c-0.288,0.271-0.513,0.604-0.675,1.008c-0.162,0.398-0.243,0.854-0.243,1.355c0,0.408,0.06,0.811,0.18,1.197
			c0.12,0.394,0.3,0.734,0.54,1.035c0.24,0.3,0.531,0.54,0.873,0.72c0.342,0.184,0.741,0.271,1.197,0.271
			c0.444,0,0.834-0.078,1.17-0.233c0.336-0.156,0.615-0.372,0.837-0.646c0.222-0.276,0.387-0.601,0.495-0.965
			c0.108-0.364,0.162-0.761,0.162-1.181v-0.954h0.954v0.954c0,0.288,0.042,0.585,0.126,0.895c0.084,0.307,0.222,0.581,0.414,0.824
			c0.192,0.246,0.432,0.447,0.72,0.604c0.288,0.155,0.63,0.231,1.026,0.231c0.408,0,0.762-0.07,1.062-0.218
			c0.3-0.144,0.549-0.342,0.747-0.594c0.198-0.252,0.342-0.547,0.432-0.882c0.09-0.337,0.135-0.69,0.135-1.063
			c0-0.468-0.078-0.882-0.234-1.238c-0.156-0.359-0.375-0.663-0.657-0.909c-0.282-0.246-0.618-0.432-1.008-0.55
			c-0.39-0.119-0.819-0.177-1.287-0.161v-1.137c0.588,0,1.137,0.096,1.647,0.278c0.51,0.188,0.948,0.45,1.314,0.792
			c0.366,0.342,0.654,0.759,0.864,1.251s0.315,1.044,0.315,1.656c0,0.491-0.063,0.972-0.189,1.438
			c-0.126,0.47-0.318,0.888-0.576,1.25c-0.258,0.366-0.591,0.66-0.999,0.886c-0.408,0.223-0.888,0.333-1.44,0.333
			c-0.684,0-1.278-0.187-1.782-0.553c-0.504-0.362-0.84-0.891-1.008-1.571h-0.036c-0.132,0.826-0.477,1.468-1.035,1.917
			c-0.558,0.448-1.251,0.676-2.079,0.676c-0.612,0-1.158-0.117-1.638-0.354c-0.48-0.229-0.882-0.549-1.206-0.94
			c-0.324-0.396-0.57-0.858-0.738-1.389c-0.168-0.527-0.252-1.08-0.252-1.653c0-0.648,0.096-1.245,0.288-1.791
			c0.192-0.547,0.471-1.019,0.837-1.404c0.366-0.391,0.816-0.686,1.35-0.882c0.534-0.198,1.137-0.273,1.809-0.229V857.075
			L16.588,857.075z"/>
		<path fill="#7C7C7C" d="M12.574,984.104v-8.299c0.624,0.016,1.176,0.122,1.656,0.333c0.48,0.209,0.912,0.479,1.296,0.813
			c0.384,0.33,0.735,0.705,1.053,1.125c0.318,0.42,0.624,0.852,0.918,1.296s0.591,0.882,0.891,1.313
			c0.3,0.435,0.63,0.826,0.99,1.188c0.348,0.348,0.705,0.609,1.071,0.783c0.366,0.174,0.801,0.261,1.305,0.261
			c0.408,0,0.771-0.075,1.089-0.225c0.318-0.15,0.588-0.354,0.81-0.612c0.222-0.258,0.39-0.558,0.504-0.899
			c0.114-0.343,0.171-0.706,0.171-1.09c0-0.516-0.096-0.957-0.288-1.319c-0.192-0.365-0.45-0.662-0.774-0.895
			c-0.324-0.228-0.696-0.393-1.116-0.495c-0.42-0.102-0.864-0.146-1.332-0.135v-1.134c0.648-0.016,1.245,0.063,1.791,0.225
			s1.017,0.411,1.413,0.747s0.705,0.759,0.927,1.271c0.222,0.51,0.333,1.104,0.333,1.791c0,0.552-0.075,1.063-0.225,1.538
			c-0.15,0.475-0.375,0.886-0.675,1.229c-0.3,0.348-0.669,0.624-1.107,0.828s-0.951,0.306-1.539,0.306
			c-0.528,0-1.008-0.087-1.44-0.261c-0.432-0.174-0.828-0.408-1.188-0.702s-0.693-0.633-0.999-1.017
			c-0.306-0.389-0.591-0.78-0.855-1.188c-0.205-0.312-0.429-0.669-0.675-1.066c-0.246-0.402-0.519-0.792-0.819-1.173
			c-0.3-0.379-0.627-0.712-0.981-0.997c-0.354-0.287-0.741-0.472-1.161-0.539v7.002L12.574,984.104L12.574,984.104z"/>
		<path fill="#7C7C7C" d="M22.744,1096.71c0.012,0.492,0.039,0.938,0.081,1.341c0.042,0.403,0.138,0.75,0.288,1.044
			c0.15,0.294,0.387,0.54,0.711,0.738c0.324,0.198,0.774,0.339,1.35,0.423v0.918h-12.6v-1.134h9.36v-3.33H22.744L22.744,1096.71z"/>
	</g>
</g>
<g opacity="0.4">
	<path fill="#727272" d="M73.828,1080.76v-7.441h22.166v-13.322h6.401v20.766L73.828,1080.76L73.828,1080.76z"/>
	<path fill="#727272" d="M79.03,1049.552v6.802h-5.202v-6.802H79.03z M81.631,1056.354v-6.802h20.765v6.802H81.631z"/>
	<path fill="#727272" d="M73.828,1044.752v-6.802h14.725l-6.923-6.202v-7.882l7.843,7.603l12.923-8.563v8.201l-8.362,5.08
		l1.721,1.763h6.643v6.802H73.828L73.828,1044.752z"/>
	<path fill="#727272" d="M93.672,1015.225c1.44-0.053,2.588-0.479,3.441-1.279c0.854-0.801,1.28-1.922,1.28-3.36
		c0-0.826-0.188-1.601-0.561-2.32c-0.374-0.72-0.946-1.239-1.721-1.561v-6.361c1.201,0.32,2.234,0.82,3.101,1.5
		c0.867,0.682,1.58,1.479,2.142,2.401c0.56,0.92,0.974,1.934,1.24,3.04c0.266,1.105,0.399,2.232,0.399,3.381
		c0,1.681-0.247,3.222-0.74,4.621c-0.492,1.398-1.213,2.602-2.16,3.602c-0.946,1-2.106,1.774-3.48,2.32
		c-1.374,0.547-2.927,0.819-4.661,0.819c-1.601,0-3.066-0.294-4.4-0.881c-1.333-0.587-2.48-1.394-3.441-2.421
		c-0.96-1.024-1.713-2.221-2.26-3.581c-0.546-1.358-0.82-2.801-0.82-4.32c0-1.865,0.327-3.493,0.98-4.881
		c0.653-1.388,1.554-2.533,2.7-3.44c1.147-0.906,2.488-1.573,4.021-2c1.534-0.427,3.181-0.603,4.94-0.521V1015.225L93.672,1015.225z
		 M89.873,1006.782c-1.174,0.054-2.174,0.453-3.001,1.198c-0.826,0.747-1.239,1.694-1.239,2.843c0,1.198,0.387,2.181,1.159,2.939
		c0.774,0.761,1.802,1.247,3.081,1.46V1006.782z"/>
	<path fill="#727272" d="M73.828,996.34v-6.802h28.567v6.802H73.828z"/>
	<path fill="#727272" d="M79.03,977.696v6.802h-5.202v-6.802H79.03z M81.631,984.498v-6.802h20.765v6.802H81.631z"/>
	<path fill="#727272" d="M73.828,972.896v-6.803h10.644v-0.08c-0.533-0.267-1.015-0.627-1.44-1.08
		c-0.425-0.453-0.787-0.967-1.081-1.541c-0.293-0.572-0.52-1.18-0.68-1.818c-0.16-0.642-0.24-1.269-0.24-1.881
		c0-1.733,0.28-3.103,0.84-4.103c0.561-1,1.247-1.747,2.061-2.24c0.814-0.492,1.688-0.807,2.621-0.938
		c0.933-0.132,1.773-0.2,2.521-0.2h13.323v6.802H92.353c-0.72,0-1.414,0-2.081,0c-0.693,0-1.307,0.101-1.84,0.301
		c-0.533,0.199-0.967,0.533-1.3,1c-0.333,0.468-0.5,1.168-0.5,2.102c0,0.641,0.127,1.193,0.38,1.661c0.254,0.467,0.587,0.847,1,1.14
		c0.414,0.294,0.887,0.516,1.42,0.66c0.534,0.146,1.081,0.221,1.641,0.221h11.323v6.803H73.828V972.896z"/>
	<path fill="#727272" d="M92.033,948.689c-1.546,0-2.994-0.268-4.341-0.801c-1.347-0.533-2.514-1.28-3.501-2.24
		c-0.986-0.961-1.76-2.112-2.32-3.461c-0.561-1.348-0.84-2.819-0.84-4.422c0-1.601,0.28-3.073,0.84-4.421
		c0.561-1.347,1.334-2.507,2.32-3.479c0.987-0.975,2.154-1.729,3.501-2.262c1.347-0.532,2.794-0.801,4.341-0.801
		c1.574,0,3.028,0.269,4.361,0.801c1.334,0.533,2.487,1.287,3.461,2.262s1.74,2.135,2.3,3.479c0.562,1.348,0.84,2.82,0.84,4.421
		c0,1.603-0.279,3.074-0.84,4.422c-0.56,1.349-1.326,2.5-2.3,3.461c-0.974,0.96-2.127,1.707-3.461,2.24
		C95.061,948.423,93.607,948.689,92.033,948.689z M92.033,941.888c0.667,0,1.34-0.064,2.021-0.2c0.68-0.133,1.3-0.358,1.86-0.68
		c0.56-0.32,1.015-0.74,1.36-1.261c0.346-0.521,0.52-1.182,0.52-1.98c0-0.798-0.173-1.467-0.52-2c-0.347-0.532-0.8-0.961-1.36-1.278
		c-0.561-0.32-1.181-0.548-1.86-0.683c-0.681-0.133-1.354-0.199-2.021-0.199c-0.666,0-1.34,0.066-2.021,0.199
		c-0.681,0.135-1.301,0.36-1.86,0.683c-0.56,0.317-1.02,0.746-1.38,1.278c-0.36,0.533-0.54,1.2-0.54,2c0,0.802,0.18,1.46,0.54,1.98
		c0.36,0.52,0.82,0.938,1.38,1.261c0.56,0.319,1.18,0.547,1.86,0.68C90.693,941.821,91.367,941.888,92.033,941.888z"/>
	<path fill="#727272" d="M92.033,924.244c-1.546,0-2.994-0.269-4.341-0.8c-1.347-0.534-2.514-1.281-3.501-2.241
		c-0.986-0.96-1.76-2.113-2.32-3.461c-0.56-1.349-0.84-2.82-0.84-4.421c0-1.603,0.28-3.074,0.84-4.422
		c0.561-1.348,1.334-2.508,2.32-3.48c0.987-0.973,2.154-1.728,3.501-2.26c1.347-0.533,2.794-0.802,4.341-0.802
		c1.574,0,3.028,0.269,4.361,0.802c1.334,0.532,2.487,1.287,3.461,2.26c0.974,0.975,1.74,2.135,2.3,3.48
		c0.562,1.348,0.84,2.819,0.84,4.422c0,1.601-0.279,3.072-0.84,4.421c-0.56,1.348-1.326,2.501-2.3,3.461s-2.127,1.707-3.461,2.241
		C95.061,923.979,93.607,924.244,92.033,924.244z M92.033,917.442c0.667,0,1.34-0.065,2.021-0.199c0.68-0.133,1.3-0.36,1.86-0.681
		c0.561-0.319,1.015-0.739,1.36-1.262c0.346-0.521,0.52-1.181,0.52-1.979c0-0.8-0.173-1.469-0.52-2
		c-0.347-0.533-0.8-0.961-1.36-1.28c-0.561-0.32-1.181-0.547-1.86-0.682c-0.681-0.134-1.354-0.199-2.021-0.199
		c-0.666,0-1.34,0.065-2.021,0.199c-0.681,0.135-1.301,0.359-1.86,0.682c-0.56,0.318-1.02,0.747-1.38,1.28
		c-0.36,0.531-0.54,1.199-0.54,2c0,0.8,0.18,1.46,0.54,1.979c0.36,0.521,0.82,0.94,1.38,1.262c0.56,0.318,1.18,0.548,1.86,0.681
		C90.692,917.376,91.367,917.442,92.033,917.442z"/>
	<path fill="#727272" d="M102.396,878.231v6.48h-2.4v0.08c2,1.36,3,3.269,3,5.722c0,1.627-0.319,3.027-0.96,4.201
		c-0.641,1.174-1.494,2.134-2.561,2.881s-2.287,1.301-3.661,1.66c-1.374,0.36-2.794,0.54-4.261,0.54c-1.36,0-2.667-0.18-3.921-0.54
		c-1.253-0.359-2.374-0.906-3.361-1.641c-0.986-0.733-1.773-1.646-2.361-2.74c-0.586-1.094-0.88-2.375-0.88-3.842
		c0-2.534,0.947-4.508,2.841-5.921v-0.08H73.828v-6.804L102.396,878.231L102.396,878.231z M86.232,888.835
		c0,0.773,0.167,1.427,0.5,1.96c0.334,0.534,0.767,0.96,1.3,1.28c0.534,0.319,1.127,0.554,1.781,0.7
		c0.654,0.146,1.313,0.22,1.979,0.22c0.721,0,1.435-0.073,2.142-0.22c0.707-0.147,1.347-0.381,1.92-0.7
		c0.574-0.32,1.04-0.746,1.399-1.28c0.36-0.533,0.54-1.187,0.54-1.96c0-0.826-0.18-1.5-0.54-2.021
		c-0.359-0.521-0.819-0.934-1.38-1.239c-0.56-0.308-1.181-0.515-1.86-0.62c-0.681-0.106-1.354-0.16-2.021-0.16
		c-0.746,0-1.466,0.074-2.16,0.22c-0.692,0.147-1.307,0.38-1.841,0.7c-0.533,0.32-0.96,0.734-1.28,1.24
		C86.392,887.461,86.232,888.088,86.232,888.835z"/>
</g>
<g opacity="0.4">
	<path fill="#727272" d="M123.19,1124.51h-5.843v-27.97h5.843V1124.51z"/>
	<path fill="#727272" d="M157.86,1124.51h-5.454v-12.583c0-3.077-1.363-4.09-2.96-4.09c-2.727,0-3.701,1.792-3.701,4.246v12.427
		h-5.454v-12.466c0-1.753,0-4.207-3.272-4.207c-2.571,0-3.389,1.792-3.389,4.051v12.622h-5.454v-20.725h5.22v3.039h0.078
		c0.701-1.364,2.221-3.584,5.882-3.584c3,0,4.363,1.091,5.766,3.311c0.701-1.013,2.22-3.311,5.532-3.311
		c4.051,0,7.207,2.376,7.207,6.934V1124.51z"/>
	<path fill="#727272" d="M167.947,1106.785h0.078c1.013-1.637,2.532-3.545,6.194-3.545c4.558,0,8.609,3.506,8.609,10.674
		c0,5.688-2.571,11.141-8.726,11.141c-3.818,0-5.181-2.064-5.844-3.194h-0.078v10.713h-5.454v-28.788h5.22V1106.785z
		 M172.738,1120.575c3.506,0,4.48-3.817,4.48-6.271c0-3.272-1.168-6.351-4.636-6.351c-3.74,0-4.636,3.351-4.636,6.662
		C167.947,1117.692,169.271,1120.575,172.738,1120.575z"/>
	<path fill="#727272" d="M203.434,1120.458c0,2.454,0.545,3,1.208,3.233v0.818h-5.882c-0.312-0.974-0.39-1.285-0.506-2.454
		c-1.247,1.285-3,2.999-6.701,2.999c-3.116,0-6.311-1.753-6.311-6.038c0-4.051,2.571-6.115,6.038-6.622l4.908-0.74
		c0.857-0.117,1.909-0.468,1.909-1.636c0-2.299-2.181-2.416-3.583-2.416c-2.727,0-3.194,1.676-3.351,2.883h-5.259
		c0.623-6.35,5.025-7.245,9.271-7.245c2.921,0,8.258,0.896,8.258,5.999V1120.458z M198.097,1114.42
		c-0.545,0.429-1.441,0.779-3.701,1.13c-2.025,0.351-3.701,0.857-3.701,3.116c0,1.909,1.48,2.493,2.532,2.493
		c2.415,0,4.869-1.558,4.869-4.09V1114.42z"/>
	<path fill="#727272" d="M226.144,1116.952c-0.195,2.143-1.87,8.103-9.466,8.103c-7.792,0-9.583-5.96-9.583-10.323
		c0-6.7,2.921-11.491,9.934-11.491c3.272,0,8.648,1.48,9.154,7.946h-5.532c-0.233-1.324-1.013-3.35-3.35-3.35h-0.272
		c-3.428,0-4.324,3.428-4.324,5.999c0,2.26,0.078,6.739,4.207,6.739c2.766,0,3.701-2.649,3.701-3.623H226.144z"/>
	<path fill="#727272" d="M236.075,1103.785h3.389v3.896h-3.389v11.259c0,1.207,0.039,1.675,2.26,1.675
		c0.351,0,0.74-0.039,1.129-0.078v4.13c-0.857,0.038-1.714,0.077-2.571,0.077h-0.701c-4.714,0-5.571-1.792-5.571-4.479v-12.583
		h-2.805v-3.896h2.805v-5.609h5.454V1103.785z"/>
</g>
</svg>
