<?xml version="1.0" encoding="utf-8"?>
<!-- Generator: Adobe Illustrator 16.0.0, SVG Export Plug-In . SVG Version: 6.00 Build 0)  -->
<!DOCTYPE svg PUBLIC "-//W3C//DTD SVG 1.1//EN" "http://www.w3.org/Graphics/SVG/1.1/DTD/svg11.dtd">
<svg version="1.1" id="圖層_1" xmlns="http://www.w3.org/2000/svg" xmlns:xlink="http://www.w3.org/1999/xlink" x="0px" y="0px"
	 width="600px" height="600px" viewBox="0 0 600 600" enable-background="new 0 0 600 600" xml:space="preserve">
<line fill="none" stroke="#000000" stroke-width="2" stroke-miterlimit="10" x1="0" y1="0" x2="0" y2="599"/>
<line fill="none" stroke="#000000" stroke-width="2" stroke-miterlimit="10" x1="600" y1="600" x2="0" y2="600"/>
<line fill="none" stroke="#000000" stroke-width="2" stroke-miterlimit="10" x1="0" y1="1" x2="28" y2="1"/>
<line fill="none" stroke="#000000" stroke-width="2" stroke-miterlimit="10" x1="599" y1="571" x2="599" y2="599"/>
<line fill="none" stroke="#000000" stroke-width="2" stroke-miterlimit="10" x1="0" y1="60" x2="17" y2="60"/>
<line fill="none" stroke="#000000" stroke-width="2" stroke-miterlimit="10" x1="0" y1="120" x2="17" y2="120"/>
<line fill="none" stroke="#000000" stroke-width="2" stroke-miterlimit="10" x1="0" y1="181" x2="17" y2="181"/>
<line fill="none" stroke="#000000" stroke-width="2" stroke-miterlimit="10" x1="0" y1="241" x2="17" y2="241"/>
<line fill="none" stroke="#000000" stroke-width="2" stroke-miterlimit="10" x1="0" y1="300" x2="17" y2="300"/>
<line fill="none" stroke="#000000" stroke-width="2" stroke-miterlimit="10" x1="0" y1="360" x2="17" y2="360"/>
<line fill="none" stroke="#000000" stroke-width="2" stroke-miterlimit="10" x1="0" y1="421" x2="17" y2="421"/>
<line fill="none" stroke="#000000" stroke-width="2" stroke-miterlimit="10" x1="0" y1="479" x2="17" y2="479"/>
<line fill="none" stroke="#000000" stroke-width="2" stroke-miterlimit="10" x1="0" y1="540" x2="17" y2="540"/>
<line fill="none" stroke="#000000" stroke-width="2" stroke-miterlimit="10" x1="539" y1="583" x2="539" y2="600"/>
<line fill="none" stroke="#000000" stroke-width="2" stroke-miterlimit="10" x1="480" y1="583" x2="480" y2="600"/>
<line fill="none" stroke="#000000" stroke-width="2" stroke-miterlimit="10" x1="419" y1="583" x2="419" y2="600"/>
<line fill="none" stroke="#000000" stroke-width="2" stroke-miterlimit="10" x1="359" y1="583" x2="359" y2="600"/>
<line fill="none" stroke="#000000" stroke-width="2" stroke-miterlimit="10" x1="299" y1="583" x2="299" y2="600"/>
<line fill="none" stroke="#000000" stroke-width="2" stroke-miterlimit="10" x1="240" y1="583" x2="240" y2="600"/>
<line fill="none" stroke="#000000" stroke-width="2" stroke-miterlimit="10" x1="179" y1="583" x2="179" y2="600"/>
<line fill="none" stroke="#000000" stroke-width="2" stroke-miterlimit="10" x1="120" y1="583" x2="120" y2="600"/>
<line fill="none" stroke="#000000" stroke-width="2" stroke-miterlimit="10" x1="59" y1="583" x2="59" y2="600"/>
<g opacity="0.7">
	<path fill="#727272" d="M57.932,544.949h10.78c0.896,0,1.703,0.145,2.422,0.435c0.719,0.289,1.334,0.686,1.848,1.189
		c0.513,0.504,0.905,1.092,1.176,1.765c0.27,0.672,0.406,1.381,0.406,2.128c0,1.176-0.248,2.193-0.742,3.052
		s-1.302,1.512-2.422,1.96v0.056c0.542,0.149,0.989,0.378,1.344,0.687c0.354,0.308,0.644,0.677,0.868,1.105
		c0.224,0.43,0.387,0.892,0.49,1.386c0.103,0.495,0.172,0.994,0.21,1.498c0.019,0.318,0.037,0.691,0.056,1.12
		c0.018,0.43,0.051,0.864,0.098,1.303c0.046,0.438,0.122,0.863,0.224,1.273c0.103,0.411,0.256,0.756,0.462,1.036h-4.396
		c-0.131-0.317-0.229-0.667-0.294-1.05s-0.122-0.784-0.168-1.204c-0.047-0.42-0.084-0.85-0.112-1.288
		c-0.028-0.438-0.07-0.854-0.126-1.246c-0.15-1.045-0.467-1.811-0.952-2.296c-0.486-0.485-1.279-0.728-2.38-0.728h-4.396v7.812
		h-4.396V544.949z M62.328,553.993h4.816c0.989,0,1.74-0.224,2.254-0.672c0.513-0.448,0.77-1.176,0.77-2.184
		c0-0.971-0.257-1.676-0.77-2.114c-0.514-0.438-1.265-0.658-2.254-0.658h-4.816V553.993z"/>
	<path fill="#727272" d="M81.816,548.226H77.84v-3.276h3.976V548.226z M77.84,550.466h3.976v14.476H77.84V550.466z"/>
	<path fill="#727272" d="M88.031,560.237c0,0.43,0.088,0.798,0.266,1.106c0.177,0.308,0.406,0.56,0.686,0.756
		c0.28,0.195,0.602,0.341,0.966,0.434c0.364,0.094,0.742,0.141,1.134,0.141c0.28,0,0.574-0.033,0.882-0.099s0.588-0.168,0.84-0.308
		c0.252-0.141,0.462-0.326,0.63-0.561c0.168-0.232,0.252-0.526,0.252-0.882c0-0.298-0.103-0.555-0.308-0.77
		c-0.206-0.215-0.5-0.406-0.882-0.574c-0.383-0.168-0.854-0.322-1.414-0.462s-1.195-0.284-1.904-0.435
		c-0.579-0.13-1.144-0.284-1.694-0.462c-0.551-0.177-1.041-0.41-1.47-0.699c-0.43-0.29-0.775-0.653-1.036-1.093
		c-0.262-0.438-0.392-0.975-0.392-1.609c0-0.915,0.182-1.676,0.546-2.282c0.364-0.606,0.845-1.082,1.442-1.428
		c0.597-0.346,1.269-0.588,2.016-0.729c0.747-0.14,1.512-0.21,2.296-0.21c0.784,0,1.544,0.075,2.282,0.225
		c0.737,0.149,1.395,0.401,1.974,0.756c0.578,0.354,1.059,0.826,1.442,1.414c0.382,0.588,0.611,1.33,0.686,2.226h-3.78
		c-0.056-0.766-0.345-1.283-0.868-1.554c-0.523-0.271-1.139-0.406-1.848-0.406c-0.224,0-0.467,0.014-0.728,0.042
		c-0.262,0.028-0.5,0.089-0.714,0.182c-0.215,0.094-0.397,0.229-0.546,0.406c-0.15,0.178-0.224,0.416-0.224,0.714
		c0,0.355,0.13,0.645,0.392,0.868c0.261,0.224,0.602,0.406,1.022,0.546c0.42,0.141,0.9,0.267,1.442,0.378
		c0.541,0.112,1.092,0.234,1.652,0.364c0.579,0.131,1.144,0.29,1.694,0.476c0.55,0.188,1.04,0.435,1.47,0.742
		c0.429,0.309,0.774,0.691,1.036,1.148c0.261,0.457,0.392,1.021,0.392,1.693c0,0.952-0.192,1.75-0.574,2.395
		c-0.383,0.644-0.882,1.162-1.498,1.554c-0.616,0.393-1.321,0.672-2.114,0.84c-0.794,0.168-1.601,0.252-2.422,0.252
		c-0.84,0-1.662-0.084-2.464-0.252s-1.517-0.452-2.142-0.854s-1.139-0.929-1.54-1.582c-0.402-0.653-0.621-1.456-0.658-2.408H88.031z
		"/>
	<path fill="#727272" d="M100.351,544.949h3.976v10.725l5.012-5.208h4.704l-5.46,5.319l6.076,9.156h-4.816l-3.976-6.468l-1.54,1.483
		v4.984h-3.976V544.949z"/>
</g>
<g opacity="0.7">
	<path fill="#727272" d="M41.008,538.426v-4.396h16.296v-9.743H61v14.14H41.008z"/>
	<path fill="#727272" d="M44.284,518.154v3.977h-3.276v-3.977H44.284z M46.524,522.131v-3.977H61v3.977H46.524z"/>
	<path fill="#727272" d="M41.008,514.654v-3.977h10.725l-5.208-5.012v-4.703l5.319,5.459L61,500.346v4.816l-6.468,3.977l1.483,1.539
		H61v3.977H41.008z"/>
	<path fill="#727272" d="M54.728,495.67c1.271-0.056,2.198-0.382,2.786-0.979c0.588-0.597,0.883-1.456,0.883-2.576
		c0-0.802-0.201-1.493-0.603-2.071s-0.826-0.934-1.274-1.064v-3.5c1.718,0.561,2.959,1.419,3.725,2.576
		c0.765,1.157,1.147,2.558,1.147,4.199c0,1.139-0.187,2.166-0.56,3.08c-0.373,0.916-0.896,1.689-1.568,2.324
		s-1.474,1.125-2.407,1.471s-1.96,0.518-3.08,0.518c-1.083,0-2.091-0.178-3.024-0.532s-1.74-0.858-2.422-1.512
		s-1.218-1.433-1.61-2.338c-0.392-0.905-0.588-1.909-0.588-3.011c0-1.231,0.238-2.305,0.714-3.219
		c0.477-0.915,1.116-1.666,1.918-2.255c0.803-0.588,1.718-1.013,2.744-1.274c1.027-0.261,2.101-0.354,3.22-0.279V495.67z
		 M52.208,489.203c-1.008,0.186-1.773,0.518-2.296,0.993s-0.784,1.2-0.784,2.171c0,0.635,0.107,1.161,0.322,1.582
		c0.215,0.42,0.48,0.756,0.798,1.008s0.653,0.43,1.008,0.531c0.354,0.104,0.672,0.164,0.952,0.182V489.203z"/>
	<path fill="#727272" d="M41.008,482.875v-3.976h7.532v-0.084c-0.821-0.505-1.428-1.148-1.82-1.933
		c-0.392-0.783-0.588-1.549-0.588-2.295c0-1.064,0.145-1.938,0.435-2.619c0.289-0.681,0.69-1.218,1.203-1.609
		c0.514-0.393,1.14-0.668,1.877-0.826s1.554-0.238,2.449-0.238H61v3.977h-8.176c-1.194,0-2.086,0.191-2.674,0.574
		c-0.589,0.383-0.883,1.041-0.883,1.974c0,1.083,0.322,1.866,0.967,2.353c0.644,0.484,1.703,0.728,3.178,0.728H61v3.976H41.008z"/>
	<path fill="#727272" d="M44.284,462.184v3.976h-3.276v-3.976H44.284z M46.524,466.159v-3.976H61v3.976H46.524z"/>
	<path fill="#727272" d="M41.008,459.047v-3.975h7.532v-0.084c-0.821-0.505-1.428-1.148-1.82-1.933
		c-0.392-0.784-0.588-1.55-0.588-2.296c0-1.064,0.145-1.937,0.435-2.618c0.289-0.681,0.69-1.218,1.203-1.61
		c0.514-0.392,1.14-0.667,1.877-0.826c0.737-0.158,1.554-0.237,2.449-0.237H61v3.976h-8.176c-1.194,0-2.086,0.191-2.674,0.574
		c-0.589,0.383-0.883,1.041-0.883,1.975c0,1.082,0.322,1.866,0.967,2.352c0.644,0.485,1.703,0.729,3.178,0.729H61v3.975H41.008z"/>
	<path fill="#727272" d="M53.776,442.892c-1.157,0-2.208-0.177-3.15-0.532c-0.942-0.354-1.745-0.858-2.408-1.512
		c-0.662-0.653-1.176-1.438-1.54-2.352c-0.363-0.915-0.546-1.941-0.546-3.08s0.183-2.17,0.546-3.094
		c0.364-0.925,0.878-1.713,1.54-2.367c0.663-0.652,1.466-1.156,2.408-1.512c0.942-0.354,1.993-0.531,3.15-0.531
		s2.202,0.178,3.136,0.531c0.934,0.355,1.731,0.859,2.394,1.512c0.663,0.654,1.177,1.442,1.54,2.367
		c0.364,0.924,0.546,1.955,0.546,3.094s-0.182,2.165-0.546,3.08c-0.363,0.914-0.877,1.698-1.54,2.352
		c-0.662,0.653-1.46,1.158-2.394,1.512C55.979,442.715,54.934,442.892,53.776,442.892z M53.776,438.916
		c0.578,0,1.144-0.057,1.693-0.168c0.551-0.112,1.046-0.304,1.484-0.574s0.789-0.631,1.05-1.078c0.262-0.448,0.393-1.008,0.393-1.68
		s-0.131-1.236-0.393-1.694c-0.261-0.458-0.611-0.821-1.05-1.093c-0.438-0.27-0.934-0.461-1.484-0.573
		c-0.55-0.112-1.115-0.168-1.693-0.168c-0.579,0-1.148,0.056-1.708,0.168c-0.561,0.112-1.055,0.304-1.484,0.573
		c-0.429,0.271-0.779,0.635-1.05,1.093s-0.406,1.022-0.406,1.694s0.136,1.231,0.406,1.68c0.271,0.447,0.621,0.808,1.05,1.078
		c0.43,0.271,0.924,0.462,1.484,0.574C52.628,438.859,53.197,438.916,53.776,438.916z"/>
	<path fill="#727272" d="M53.776,425.784c-1.157,0-2.208-0.177-3.15-0.532c-0.942-0.354-1.745-0.858-2.408-1.512
		c-0.662-0.653-1.176-1.438-1.54-2.352c-0.363-0.915-0.546-1.941-0.546-3.08s0.183-2.17,0.546-3.094
		c0.364-0.925,0.878-1.713,1.54-2.367c0.663-0.652,1.466-1.156,2.408-1.512c0.942-0.354,1.993-0.531,3.15-0.531
		s2.202,0.178,3.136,0.531c0.934,0.355,1.731,0.859,2.394,1.512c0.663,0.654,1.177,1.442,1.54,2.367
		c0.364,0.924,0.546,1.955,0.546,3.094s-0.182,2.165-0.546,3.08c-0.363,0.914-0.877,1.698-1.54,2.352
		c-0.662,0.653-1.46,1.158-2.394,1.512C55.979,425.607,54.934,425.784,53.776,425.784z M53.776,421.809
		c0.578,0,1.144-0.057,1.693-0.168c0.551-0.112,1.046-0.304,1.484-0.574s0.789-0.631,1.05-1.078c0.262-0.448,0.393-1.008,0.393-1.68
		s-0.131-1.236-0.393-1.694c-0.261-0.458-0.611-0.821-1.05-1.093c-0.438-0.27-0.934-0.461-1.484-0.573
		c-0.55-0.112-1.115-0.168-1.693-0.168c-0.579,0-1.148,0.056-1.708,0.168c-0.561,0.112-1.055,0.304-1.484,0.573
		c-0.429,0.271-0.779,0.635-1.05,1.093s-0.406,1.022-0.406,1.694s0.136,1.231,0.406,1.68c0.271,0.447,0.621,0.808,1.05,1.078
		c0.43,0.271,0.924,0.462,1.484,0.574C52.628,421.752,53.197,421.809,53.776,421.809z"/>
	<path fill="#727272" d="M59.152,397.896v0.056c0.783,0.467,1.354,1.083,1.708,1.849s0.531,1.614,0.531,2.547
		c0,1.102-0.215,2.059-0.644,2.871c-0.43,0.812-1.003,1.483-1.722,2.016c-0.719,0.531-1.545,0.934-2.479,1.204
		c-0.933,0.271-1.904,0.405-2.912,0.405c-0.97,0-1.908-0.135-2.813-0.405s-1.703-0.673-2.395-1.204
		c-0.69-0.532-1.246-1.199-1.666-2.002s-0.63-1.736-0.63-2.801c0-0.857,0.183-1.675,0.546-2.449c0.364-0.774,0.901-1.387,1.61-1.834
		v-0.057h-7.28v-3.976H61v3.78H59.152z M53.72,397.952c-0.578,0-1.147,0.056-1.708,0.168c-0.56,0.112-1.05,0.304-1.47,0.574
		s-0.761,0.626-1.022,1.063c-0.261,0.439-0.392,0.977-0.392,1.61c0,0.653,0.131,1.204,0.392,1.651
		c0.262,0.449,0.607,0.809,1.036,1.078c0.43,0.271,0.92,0.467,1.471,0.588c0.551,0.122,1.124,0.183,1.722,0.183
		c0.56,0,1.12-0.065,1.68-0.196c0.561-0.13,1.06-0.34,1.498-0.63c0.439-0.289,0.794-0.653,1.064-1.092s0.406-0.966,0.406-1.582
		c0-0.653-0.131-1.199-0.393-1.638c-0.261-0.438-0.611-0.789-1.05-1.051c-0.438-0.261-0.938-0.447-1.498-0.56
		S54.317,397.952,53.72,397.952z"/>
</g>
<g>
</g>
<g>
</g>
<g>
</g>
<g>
</g>
<g>
</g>
<g>
</g>
<g>
</g>
<g>
</g>
<g>
</g>
<g>
</g>
<g>
</g>
<g>
</g>
<g>
</g>
<g>
</g>
<g>
</g>
</svg>
