<?xml version="1.0" encoding="utf-8"?>
<!-- Generator: Adobe Illustrator 16.0.0, SVG Export Plug-In . SVG Version: 6.00 Build 0)  -->
<!DOCTYPE svg PUBLIC "-//W3C//DTD SVG 1.1//EN" "http://www.w3.org/Graphics/SVG/1.1/DTD/svg11.dtd">
<svg version="1.1" id="圖層_2" xmlns="http://www.w3.org/2000/svg" xmlns:xlink="http://www.w3.org/1999/xlink" x="0px" y="0px"
	 width="600px" height="600px" viewBox="300 300 600 600" enable-background="new 300 300 600 600" xml:space="preserve">
<g opacity="0.4">
	<path fill="#727272" d="M412.451,804.42h15.009c1.248,0,2.372,0.201,3.373,0.605c1.001,0.402,1.857,0.956,2.573,1.656
		c0.715,0.701,1.261,1.521,1.638,2.457c0.375,0.936,0.565,1.923,0.565,2.963c0,1.639-0.345,3.054-1.033,4.249
		c-0.688,1.197-1.813,2.106-3.373,2.73v0.077c0.754,0.208,1.377,0.526,1.872,0.956c0.493,0.43,0.897,0.943,1.208,1.539
		c0.312,0.599,0.54,1.242,0.683,1.93c0.143,0.689,0.239,1.385,0.292,2.086c0.026,0.443,0.052,0.963,0.079,1.56
		c0.024,0.598,0.07,1.203,0.135,1.814c0.065,0.61,0.17,1.201,0.313,1.772c0.143,0.572,0.357,1.053,0.643,1.442h-6.121
		c-0.182-0.441-0.319-0.928-0.41-1.463c-0.09-0.532-0.17-1.092-0.234-1.677c-0.065-0.584-0.117-1.183-0.155-1.792
		c-0.039-0.61-0.098-1.189-0.176-1.734c-0.208-1.455-0.65-2.522-1.326-3.197c-0.676-0.676-1.781-1.014-3.313-1.014h-6.121v10.877
		h-6.121V804.42z M418.572,817.013h6.706c1.377,0,2.422-0.312,3.138-0.936c0.714-0.624,1.072-1.638,1.072-3.042
		c0-1.352-0.358-2.333-1.072-2.942c-0.716-0.61-1.761-0.916-3.138-0.916h-6.706V817.013z"/>
	<path fill="#727272" d="M445.706,808.982h-5.536v-4.561h5.536V808.982z M440.17,812.102h5.536v20.155h-5.536V812.102z"/>
	<path fill="#727272" d="M454.36,825.707c0,0.599,0.123,1.11,0.37,1.539c0.247,0.43,0.565,0.78,0.955,1.053
		c0.39,0.271,0.838,0.475,1.345,0.604c0.507,0.131,1.033,0.196,1.579,0.196c0.39,0,0.8-0.046,1.228-0.138
		c0.43-0.092,0.819-0.233,1.17-0.429c0.352-0.197,0.644-0.453,0.877-0.781c0.234-0.323,0.352-0.733,0.352-1.228
		c0-0.415-0.144-0.774-0.43-1.073s-0.695-0.564-1.228-0.798s-1.188-0.449-1.969-0.645c-0.78-0.194-1.664-0.395-2.651-0.605
		c-0.806-0.181-1.592-0.396-2.358-0.644c-0.767-0.247-1.45-0.57-2.046-0.974c-0.6-0.403-1.08-0.909-1.443-1.521
		c-0.365-0.61-0.546-1.358-0.546-2.241c0-1.273,0.253-2.333,0.761-3.178c0.506-0.843,1.176-1.507,2.008-1.988
		c0.83-0.48,1.768-0.817,2.807-1.014c1.04-0.196,2.105-0.293,3.197-0.293c1.091,0,2.149,0.104,3.177,0.313
		c1.026,0.208,1.942,0.56,2.749,1.053c0.805,0.494,1.475,1.15,2.008,1.97c0.531,0.818,0.852,1.852,0.955,3.099h-5.264
		c-0.078-1.066-0.48-1.785-1.208-2.164c-0.729-0.376-1.587-0.565-2.573-0.565c-0.313,0-0.65,0.021-1.014,0.059
		c-0.365,0.039-0.696,0.126-0.994,0.255c-0.299,0.13-0.553,0.318-0.76,0.563c-0.209,0.249-0.313,0.579-0.313,0.995
		c0,0.494,0.182,0.898,0.546,1.208c0.363,0.313,0.838,0.565,1.423,0.762c0.585,0.195,1.254,0.371,2.008,0.525
		c0.753,0.157,1.521,0.326,2.301,0.508c0.805,0.183,1.592,0.402,2.358,0.662c0.766,0.261,1.448,0.604,2.046,1.033
		c0.598,0.43,1.078,0.961,1.443,1.598c0.363,0.637,0.546,1.423,0.546,2.357c0,1.326-0.268,2.438-0.8,3.335
		c-0.533,0.896-1.228,1.618-2.086,2.164c-0.857,0.547-1.839,0.936-2.943,1.169c-1.105,0.234-2.229,0.352-3.372,0.352
		c-1.169,0-2.313-0.117-3.431-0.352c-1.117-0.233-2.112-0.629-2.982-1.189c-0.87-0.559-1.586-1.293-2.145-2.202
		c-0.56-0.909-0.864-2.028-0.916-3.354h5.264V825.707z"/>
	<path fill="#727272" d="M471.514,804.42h5.536v14.934l6.979-7.252h6.55l-7.603,7.406l8.461,12.749h-6.706l-5.536-9.007
		l-2.145,2.065v6.938h-5.536V804.42z"/>
</g>
<g opacity="0.4">
	<path fill="#727272" d="M361.093,786.505v-7.442h22.166v-13.323h6.401v20.766H361.093z"/>
	<path fill="#727272" d="M366.295,755.297v6.802h-5.202v-6.802H366.295z M368.896,762.099v-6.802h20.765v6.802H368.896z"/>
	<path fill="#727272" d="M361.093,750.497v-6.802h14.724l-6.922-6.202v-7.882l7.842,7.603l12.923-8.563v8.202l-8.362,5.081
		l1.721,1.761h6.642v6.802H361.093z"/>
	<path fill="#727272" d="M380.938,720.97c1.44-0.053,2.587-0.48,3.441-1.28c0.854-0.8,1.28-1.921,1.28-3.361
		c0-0.826-0.187-1.6-0.56-2.32c-0.374-0.72-0.947-1.24-1.721-1.561v-6.361c1.201,0.32,2.234,0.82,3.101,1.5
		c0.867,0.681,1.58,1.48,2.141,2.401c0.56,0.92,0.974,1.934,1.24,3.04c0.266,1.107,0.4,2.234,0.4,3.381
		c0,1.681-0.247,3.222-0.74,4.621c-0.493,1.4-1.213,2.602-2.161,3.602c-0.946,1-2.106,1.774-3.48,2.32
		c-1.374,0.547-2.927,0.82-4.661,0.82c-1.601,0-3.067-0.293-4.401-0.88c-1.333-0.587-2.48-1.394-3.441-2.421
		c-0.96-1.026-1.713-2.221-2.26-3.581c-0.546-1.36-0.82-2.801-0.82-4.321c0-1.866,0.327-3.494,0.98-4.881
		c0.654-1.387,1.554-2.534,2.701-3.441c1.147-0.906,2.488-1.573,4.021-2c1.534-0.427,3.181-0.601,4.941-0.521V720.97z
		 M377.138,712.527c-1.174,0.054-2.174,0.454-3.001,1.2c-0.826,0.747-1.24,1.694-1.24,2.841c0,1.2,0.387,2.181,1.16,2.941
		c0.774,0.76,1.801,1.247,3.081,1.46V712.527z"/>
	<path fill="#727272" d="M361.093,702.085v-6.802h28.567v6.802H361.093z"/>
	<path fill="#727272" d="M366.295,683.441v6.802h-5.202v-6.802H366.295z M368.896,690.243v-6.802h20.765v6.802H368.896z"/>
	<path fill="#727272" d="M361.093,678.641v-6.802h10.643v-0.08c-0.533-0.267-1.014-0.627-1.44-1.08
		c-0.426-0.453-0.787-0.967-1.081-1.541c-0.293-0.573-0.52-1.18-0.68-1.82c-0.16-0.64-0.24-1.267-0.24-1.88
		c0-1.734,0.28-3.102,0.84-4.102c0.56-1,1.247-1.747,2.06-2.24c0.814-0.493,1.688-0.807,2.621-0.94c0.934-0.133,1.774-0.2,2.521-0.2
		h13.323v6.802h-10.042c-0.72,0-1.414,0-2.081,0c-0.693,0-1.307,0.1-1.84,0.3c-0.533,0.2-0.967,0.534-1.3,1.001s-0.5,1.167-0.5,2.1
		c0,0.641,0.127,1.194,0.38,1.661c0.254,0.467,0.587,0.847,1,1.14c0.414,0.294,0.887,0.515,1.42,0.66
		c0.534,0.147,1.081,0.221,1.641,0.221h11.323v6.802H361.093z"/>
	<path fill="#727272" d="M379.298,654.435c-1.546,0-2.994-0.267-4.341-0.8c-1.347-0.534-2.514-1.281-3.501-2.241
		c-0.986-0.96-1.76-2.113-2.32-3.461c-0.561-1.347-0.84-2.82-0.84-4.421s0.28-3.074,0.84-4.421c0.56-1.347,1.334-2.507,2.32-3.481
		c0.987-0.973,2.154-1.727,3.501-2.26c1.347-0.533,2.794-0.801,4.341-0.801c1.574,0,3.028,0.268,4.361,0.801
		c1.334,0.533,2.487,1.287,3.461,2.26c0.974,0.975,1.74,2.135,2.3,3.481c0.561,1.347,0.84,2.82,0.84,4.421s-0.28,3.074-0.84,4.421
		c-0.56,1.348-1.326,2.501-2.3,3.461c-0.974,0.96-2.127,1.707-3.461,2.241C382.326,654.168,380.872,654.435,379.298,654.435z
		 M379.298,647.633c0.667,0,1.34-0.066,2.021-0.2c0.68-0.133,1.3-0.36,1.861-0.68c0.56-0.32,1.014-0.74,1.36-1.261
		s0.52-1.181,0.52-1.98s-0.173-1.467-0.52-2s-0.8-0.961-1.36-1.28c-0.561-0.32-1.181-0.547-1.861-0.681
		c-0.68-0.133-1.353-0.2-2.021-0.2c-0.666,0-1.34,0.067-2.021,0.2c-0.68,0.134-1.3,0.36-1.86,0.681
		c-0.56,0.319-1.02,0.747-1.38,1.28c-0.36,0.533-0.54,1.2-0.54,2s0.18,1.46,0.54,1.98c0.36,0.521,0.82,0.94,1.38,1.261
		c0.56,0.319,1.18,0.547,1.86,0.68C377.958,647.566,378.632,647.633,379.298,647.633z"/>
	<path fill="#727272" d="M379.298,629.989c-1.546,0-2.994-0.267-4.341-0.8c-1.347-0.534-2.514-1.281-3.501-2.241
		c-0.986-0.96-1.76-2.113-2.32-3.461c-0.561-1.347-0.84-2.82-0.84-4.421s0.28-3.074,0.84-4.421c0.56-1.347,1.334-2.507,2.32-3.481
		c0.987-0.973,2.154-1.727,3.501-2.26c1.347-0.533,2.794-0.801,4.341-0.801c1.574,0,3.028,0.268,4.361,0.801
		c1.334,0.533,2.487,1.287,3.461,2.26c0.974,0.975,1.74,2.135,2.3,3.481c0.561,1.347,0.84,2.82,0.84,4.421s-0.28,3.074-0.84,4.421
		c-0.56,1.348-1.326,2.501-2.3,3.461c-0.974,0.96-2.127,1.707-3.461,2.241C382.326,629.723,380.872,629.989,379.298,629.989z
		 M379.298,623.188c0.667,0,1.34-0.066,2.021-0.2c0.68-0.133,1.3-0.36,1.861-0.68c0.56-0.32,1.014-0.74,1.36-1.261
		s0.52-1.181,0.52-1.98s-0.173-1.467-0.52-2s-0.8-0.961-1.36-1.28c-0.561-0.32-1.181-0.547-1.861-0.681
		c-0.68-0.133-1.353-0.2-2.021-0.2c-0.666,0-1.34,0.067-2.021,0.2c-0.68,0.134-1.3,0.36-1.86,0.681
		c-0.56,0.319-1.02,0.747-1.38,1.28c-0.36,0.533-0.54,1.2-0.54,2s0.18,1.46,0.54,1.98c0.36,0.521,0.82,0.94,1.38,1.261
		c0.56,0.319,1.18,0.547,1.86,0.68C377.958,623.121,378.632,623.188,379.298,623.188z"/>
	<path fill="#727272" d="M389.661,583.977v6.481h-2.4v0.08c2,1.36,3,3.268,3,5.722c0,1.627-0.32,3.027-0.96,4.201
		c-0.641,1.174-1.494,2.134-2.561,2.881c-1.066,0.747-2.287,1.3-3.661,1.66c-1.374,0.36-2.794,0.54-4.261,0.54
		c-1.36,0-2.667-0.18-3.921-0.54c-1.253-0.36-2.374-0.906-3.361-1.641c-0.986-0.733-1.773-1.646-2.361-2.74
		c-0.586-1.094-0.88-2.375-0.88-3.842c0-2.534,0.947-4.507,2.841-5.921v-0.08h-10.043v-6.802H389.661z M373.497,594.58
		c0,0.774,0.167,1.427,0.5,1.96c0.334,0.534,0.767,0.96,1.3,1.28c0.534,0.32,1.127,0.554,1.781,0.7
		c0.654,0.147,1.314,0.22,1.98,0.22c0.72,0,1.434-0.073,2.141-0.22c0.707-0.146,1.347-0.38,1.92-0.7c0.574-0.32,1.04-0.746,1.4-1.28
		c0.36-0.533,0.54-1.187,0.54-1.96c0-0.826-0.18-1.5-0.54-2.021c-0.36-0.52-0.82-0.933-1.38-1.24
		c-0.56-0.306-1.181-0.513-1.861-0.62c-0.68-0.106-1.353-0.16-2.021-0.16c-0.746,0-1.466,0.074-2.16,0.22
		c-0.693,0.147-1.307,0.38-1.841,0.7c-0.533,0.32-0.96,0.734-1.28,1.24C373.657,593.206,373.497,593.833,373.497,594.58z"/>
</g>
</svg>
