<?xml version="1.0" encoding="utf-8"?>
<!-- Generator: Adobe Illustrator 16.0.0, SVG Export Plug-In . SVG Version: 6.00 Build 0)  -->
<!DOCTYPE svg PUBLIC "-//W3C//DTD SVG 1.1//EN" "http://www.w3.org/Graphics/SVG/1.1/DTD/svg11.dtd">
<svg version="1.1" id="圖層_1" xmlns="http://www.w3.org/2000/svg" xmlns:xlink="http://www.w3.org/1999/xlink" x="0px" y="0px"
	 width="261.667px" height="40px" viewBox="0 0 261.667 40" enable-background="new 0 0 261.667 40" xml:space="preserve">
<rect fill="#212121" width="162" height="40"/>
<g>
	<path fill="#FFFFFF" d="M144.357,30.684c0,0,0.438-0.172,1.109-0.771c0.672-0.593,0.779-1.374,1.382-2.13
		c0.669-0.842,2.091-2.155,2.091-2.155s-0.434,1.814-0.845,2.661c-0.603,1.229-1.263,1.608-1.263,1.608s0.33,0.231,0.775,0.03
		c0.445-0.193,0.918-0.441,1.586-0.371c0.671,0.076,1.506,0.098,2.346-0.396c0.841-0.497,1.588-0.982,1.588-0.982
		s-0.527,1.614-2.628,2.509c-1.353,0.581-2.938,0.566-3.434,0.295c-0.498-0.271-1.089-0.4-1.511-0.277
		C145.135,30.832,144.357,30.684,144.357,30.684"/>
	<path fill="#FFFFFF" d="M151.144,22.078c0,0,0.016,1.561,0.115,2.106c0.099,0.543-0.017,1.215-0.243,1.735
		c-0.222,0.521-0.6,1.265-0.328,1.412c0.277,0.15,0.37-0.445,0.967-0.871c0.596-0.422,1.678-0.977,2.268-1.33
		c0.95-0.574,1.673-1.642,1.673-1.642s-0.417,2.431-2.46,3.841c-1.35,0.931-4.032,1.167-4.032,1.167s0.284-0.253,0.432-0.897
		c0.147-0.643,0.217-2.004,0.487-2.872C150.29,23.86,151.144,22.078,151.144,22.078"/>
	<path fill="#FFFFFF" d="M152.246,18.546c0,0,0.773,1.944,0.871,2.485c0.096,0.545-0.057,2.171-0.057,2.171s0.635-0.573,1.262-1.554
		c0.486-0.774,1.186-1.043,1.586-1.665c0.393-0.618,0.547-0.869,0.547-0.869s-0.39,1.723-0.823,2.728
		c-0.72,1.679-3.592,3.45-3.592,3.45s0.152-0.492,0.226-1.457c0.072-0.963-0.171-2.086-0.242-2.809
		C151.957,20.338,152.246,18.546,152.246,18.546"/>
	<path fill="#FFFFFF" d="M152.199,14.57c0,0,0.227,0.272,0.695,1.014c0.471,0.743,1.09,1.534,1.114,1.982
		c0.023,0.446,0.247,0.994,0.396,0.969c0.147-0.025,0.146-0.531,0.37-1.304c0.224-0.767,0.885-1.526,0.993-2.092
		c0.089-0.46,0.269-1.117,0.269-1.117s0.35,1.958-0.069,3.544c-0.423,1.585-1.36,2.351-1.509,2.553
		c-0.152,0.195-0.427,0.472-0.427,0.472s0.146,0.146-0.294-0.843c-0.443-0.992-0.756-1.605-1.147-2.335
		C152.29,16.853,152.199,14.57,152.199,14.57"/>
	<path fill="#FFFFFF" d="M151.209,11.292c0,0,1.078,0.625,1.574,1.162c0.555,0.603,1.177,1.721,1.375,1.671
		c0.2-0.05-0.012-0.993,0.04-1.365c0.054-0.37,0.196-2.045,0.12-2.488c-0.073-0.444-0.209-1.079-0.209-1.079
		s1.231,1.802,1.206,3.089c-0.023,1.288,0.038,1.575-0.543,2.579c-0.306,0.531-0.497,1.263-0.497,1.263s-0.18-0.377-0.602-0.896
		c-0.422-0.523-1.331-1.415-1.654-2.208C151.693,12.226,151.209,11.292,151.209,11.292"/>
	<path fill="#FFFFFF" d="M149.573,8.143c0,0,0.307,0.282,0.804,0.627c0.495,0.349,1.121,0.583,1.467,0.928
		c0.342,0.346,0.777,0.75,0.953,0.649c0.171-0.097-0.051-0.408-0.32-1.154c-0.274-0.745-0.277-1.48-0.498-1.805
		c-0.219-0.319-0.422-0.953-0.422-0.953s1.361,1.06,1.611,1.927c0.248,0.865,0.216,3.596,0.216,3.596s-0.244-0.344-0.713-0.691
		c-0.472-0.345-1.655-1.205-2.057-1.521C149.88,9.182,149.573,8.143,149.573,8.143"/>
	<g>
		<path fill="#FFFFFF" d="M148.467,5.232c0,0,1.094,0.296,1.787,0.888c0.692,0.598,1.264,2.236,1.264,2.236
			s-1.144-0.573-1.611-1.021C149.438,6.892,148.467,5.232,148.467,5.232"/>
		<path fill="#FFFFFF" d="M127.391,31.575c0,0,1.256,0.647,2.225,0.574s1.865-0.394,3.463-0.809
			c1.602-0.411,2.822-0.502,3.541-0.374c0.715,0.122,1.975,0.287,1.975,0.287s1.633-0.255,2.906-0.324
			c0.646-0.039,1.504,0.151,2.457,0.449c0.926,0.293,2.606,0.828,3.537,0.842c1.383,0.02,2.426-0.521,2.426-0.521
			s-0.135,1.01-3.446,1.329c-1.969,0.183-2.779,0.036-3.644-0.521c-0.864-0.558-1.817-1.02-2.244-1.039
			c-0.434-0.021-1.081,0.035-1.081,0.035s1.187,0.43,1.779,0.896c0.59,0.469,2.119,1.722,2.119,1.722l-0.38,0.433
			c0,0-0.59-0.861-1.561-1.563c-0.971-0.698-2.329-1.399-2.834-1.399c-0.504,0-2.152,0.753-3.215,1.74
			c-1.016,0.949-1.133,1.185-1.133,1.185l-0.395-0.395c0,0,0.777-0.771,1.813-1.452c1.038-0.686,2.137-1.223,2.137-1.223
			s-0.035-0.106-0.664-0.053c-0.63,0.053-1.131,0.129-2.205,0.789c-1.081,0.664-1.495,0.824-2.425,0.931
			c-0.91,0.11-2.731-0.07-3.825-0.534C127.622,32.113,127.391,31.575,127.391,31.575"/>
	</g>
	<path fill="#FFFFFF" d="M124.068,28.021c0,0,1.001,0.793,1.469,1.059c1.045,0.592,1.961,0.322,2.621,0.412
		c0.668,0.092,1.258,0.25,1.457,0.343c0.199,0.092,0.787,0.145,0.846,0.038c0.061-0.127-0.537-0.373-0.987-1.169
		c-0.657-1.162-1.044-3.067-1.044-3.067s0.986,0.699,1.883,1.885c0.898,1.187,0.776,1.77,1.403,2.299
		c0.661,0.553,1.274,0.859,1.274,0.859s-0.822-0.087-1.413-0.033c-0.592,0.052-1.588,0.459-2.495,0.442
		c-0.871-0.017-2.549-0.09-3.951-1.651C124.195,28.402,124.068,28.021,124.068,28.021"/>
	<path fill="#FFFFFF" d="M121.555,23.57c0,0,0.592,0.791,1.459,1.488c0.86,0.697,2.169,1.113,2.621,1.617
		c0.449,0.506,0.642,0.918,0.893,0.793c0.254-0.127-0.154-0.563-0.318-1.222c-0.167-0.667-0.307-2.441-0.167-3.126
		c0.078-0.357,0.04-0.896,0.04-0.896s0.398,0.676,0.864,1.723c0.425,0.97,0.397,2.637,0.589,3.377
		c0.197,0.775,0.61,1.287,0.61,1.287s-1.331-0.07-1.993-0.32c-0.662-0.254-2.529-0.934-3.23-2.082
		C122.223,25.061,121.555,23.57,121.555,23.57"/>
	<path fill="#FFFFFF" d="M120.74,19.136c0,0,0.27,0.69,0.698,1.098c0.433,0.41,0.697,0.61,1.2,1.2
		c0.354,0.416,1.188,2.021,1.457,1.976c0.215-0.036-0.107-0.86-0.023-1.671c0.148-1.38,1.008-3.01,1.008-3.01
		s0.199,1.698,0.145,2.705c-0.047,1.008-0.394,2.137-0.269,2.713c0.124,0.576,0.196,1.289,0.196,1.289s-1.311-0.873-2.246-1.717
		c-0.928-0.849-1.775-2.694-1.936-3.269C120.811,19.877,120.74,19.136,120.74,19.136"/>
	<path fill="#FFFFFF" d="M121.092,14.113c0,0-0.169,2.49,0.146,3.625c0.498,1.827,1.899,2.998,1.899,2.998s0.125-0.629,0.431-1.277
		c0.307-0.644,0.792-1.287,0.987-1.808c0.381-1.028,0.467-2.854,0.467-2.854s-0.338,0.516-0.645,0.931
		c-0.305,0.414-0.679,0.913-0.97,1.597c-0.287,0.685-0.323,1.315-0.646,1.348c-0.454,0.04-0.071-0.609-0.449-1.492
		c-0.377-0.88-0.914-1.776-0.97-2.206C121.29,14.547,121.092,14.113,121.092,14.113"/>
	<path fill="#FFFFFF" d="M123.059,9.295c0,0-0.988,1.349-1.133,2.582c-0.142,1.241-0.049,2.236,0.432,3.054
		c0.324,0.556,0.428,1.382,0.428,1.382s0.166-0.427,0.577-0.88c0.41-0.449,1.126-1.091,1.632-1.954
		c0.506-0.862,0.952-1.994,0.952-1.994s-0.807,0.455-1.257,0.866c-1.136,1.03-1.689,2.008-1.689,2.008s-0.318-0.286-0.215-0.701
		c0.113-0.413,0.164-1.044,0.13-1.51c-0.038-0.462-0.185-0.731-0.098-1.309C122.915,10.263,123.059,9.295,123.059,9.295"/>
	<path fill="#FFFFFF" d="M125.746,6.508c0,0-1.325,0.808-1.685,1.814c-0.271,0.769-0.163,1.577-0.289,2.387
		c-0.123,0.806,0.036,1.363,0.036,1.363s0.105-0.2,0.578-0.699c0.466-0.503,1.202-0.807,1.719-1.173
		c1.115-0.77,1.618-2.026,1.618-2.026s-0.647,0.592-0.974,0.774c-0.318,0.178-0.928,0.465-1.373,0.791
		c-0.329,0.228-0.592,0.908-0.592,0.908s-0.418-0.388-0.275-0.82c0.145-0.431,0.358-0.756,0.446-1.185
		c0.092-0.431,0.218-1.06,0.397-1.381C125.525,6.963,125.746,6.508,125.746,6.508"/>
	<path fill="#FFFFFF" d="M126.712,6.444c0.542-0.518,2.044-1.073,2.044-1.073s-0.646,1.08-1.346,1.795
		c-0.812,0.834-1.832,1.326-1.832,1.326S125.779,7.34,126.712,6.444"/>
	<path fill="#FFFFFF" d="M133.752,8.221c1.39,0,4.178,1.5,4.178,3.502c0,1.255-0.973,2.101-0.973,2.101s0.04,0.698-0.059,0.911
		c-0.183,0.403-0.365,0.285-0.605,0.648c-0.244,0.362-0.343,0.929-1.354,0.929c-1.015,0-0.991-0.324-1.477-0.324
		c-0.483,0-0.808,0.464-0.808,0.464v3.62c0,0,0.101,0.461,1.01,0.948c0.908,0.486,1.62,0.788,1.9,0.788
		c0.281,0,0.281-0.322,0.625-0.322c0.346,0,1.738,0,1.738,0.647c0,0.646-0.686,1.089-3.193,1.089c-2.505,0-3.271-0.2-3.557-0.2
		c-0.284,0-0.324,0.061-0.324,0.443c0,0.385-0.018,0.93-0.018,0.93s0.42,0.668,0.927,0.93c0.507,0.263,0.79,0.404,1.356,0.404
		c0.564,0,1.41-0.182,2.102-0.486c0.688-0.303,1.352-0.482,2.144-0.482c0.787,0,2.181-0.182,2.181-0.99
		c0-0.811-0.301-1.092-0.301-1.719s0.098-1.176-0.203-1.478c-0.3-0.3-1.637-1.271-1.637-1.816c0-0.545,0.486-0.788,0.547-1.091
		c0.06-0.304,0.02-0.484,0.221-0.546c0.203-0.06,0.364-0.142,0.364-0.142l0.101-0.504c0,0,0.266-0.124,0.404-0.245
		c0.141-0.119,0.261-0.199,0.261-0.199s-0.12-0.386,0.104-0.628c0.222-0.242,0.526-0.183,0.747-0.183s0.906-0.081,0.906-0.081
		s0.221-0.399,0.47-0.584c0.405-0.305,1.513-0.465,1.798-0.687c0.282-0.222,0.586-0.769,1.334-0.769c3.07,0,5.132,2.771,5.132,4.265
		c0,2.587-1.677,5.718-4.021,5.718c-1.84,0-1.717,0.545-1.717,1.152c0,1.415,1.375,1.678,1.375,1.678s-2.893,2.182-6.248,2.182
		c-3.188,0-6.361-1.175-8.642-3.689c-1.572-1.728-2.769-4.022-2.769-7.172c0-1.24,0.002-1.445,0.002-1.445s0.834-0.652,1.342-0.91
		c0.508-0.254,1.635-0.913,1.635-1.455c0-0.538-0.21-0.746-0.21-1.889c0-0.527,0.13-1.486,0.61-2.136
		C131.713,8.639,132.695,8.221,133.752,8.221"/>
	<path fill="#FFFFFF" d="M138.715,4.897c-6.744,0-12.208,5.466-12.208,12.208c0,6.744,5.464,12.209,12.208,12.209
		c6.742,0,12.207-5.465,12.207-12.209C150.922,10.364,145.457,4.897,138.715,4.897L138.715,4.897z M147.829,9.536
		c0.636,0.752,0.917,1.29,0.917,1.29s-0.422,0.43-0.91,0.663c-0.49,0.229-1.404,0.575-1.404,0.575s-0.334-1.04-0.604-1.595
		c-0.271-0.552-0.549-1.206-0.549-1.206s0.27-0.183,0.668-0.465c0.396-0.28,0.666-0.526,0.666-0.526S147.297,8.903,147.829,9.536
		L147.829,9.536z M143.8,6.396c0,0,0.829,0.361,1.384,0.774c0.553,0.41,1.193,0.913,1.193,0.913s-0.098,0.172-0.406,0.406
		s-0.764,0.437-0.764,0.437s-0.409-0.575-0.756-1.014c-0.343-0.438-0.99-1.184-0.99-1.184s0.145-0.141,0.221-0.231
		C143.758,6.407,143.8,6.396,143.8,6.396L143.8,6.396z M142.203,8.939c-0.13-0.568-0.442-1.091-0.442-1.091s0.508-0.248,0.841-0.464
		c0.336-0.218,0.604-0.438,0.604-0.438s0.58,0.581,1.003,1.106c0.421,0.526,0.72,1.032,0.72,1.032s-0.539,0.243-1.156,0.524
		c-0.615,0.282-1.39,0.399-1.39,0.399S142.331,9.507,142.203,8.939L142.203,8.939z M142.512,13.106c0,0-0.285,0.078-1.234,0.118
		c-0.95,0.038-1.792-0.016-1.792-0.016v-2.701c0,0,0.737,0.049,1.278,0.049c0.539,0,1.453-0.163,1.453-0.163
		s0.052,0.423,0.165,1.104C142.498,12.179,142.512,13.106,142.512,13.106L142.512,13.106z M142.816,5.973
		c0.334,0.09,0.729,0.328,0.729,0.328l-0.353,0.273c0,0-0.255-0.23-0.476-0.451c-0.252-0.254-0.768-0.407-0.768-0.407
		S142.481,5.884,142.816,5.973L142.816,5.973z M141.854,5.879c0.622,0.34,1.096,0.883,1.096,0.883s-0.232,0.154-0.554,0.387
		c-0.319,0.234-0.774,0.329-0.774,0.329s-0.283-0.675-0.486-1.061c-0.192-0.359-0.82-1.03-0.82-1.03S141.232,5.539,141.854,5.879
		L141.854,5.879z M139.433,5.317c0,0,0.668-0.176,1.276,0.978c0.316,0.598,0.606,1.278,0.606,1.278s-0.473,0.144-0.946,0.196
		c-0.477,0.05-0.937-0.025-0.937-0.025V5.317L139.433,5.317z M139.427,8.092c0,0,0.46,0.038,0.989,0
		c0.53-0.035,1.039-0.149,1.039-0.149s0.183,0.193,0.354,0.96c0.154,0.697,0.235,1.195,0.235,1.195s-0.562,0.153-1.356,0.205
		c-0.798,0.05-1.261-0.04-1.261-0.04V8.092L139.427,8.092z M139.066,5.317l0.045,2.463c0,0-0.527,0.047-1.107-0.109
		c-0.578-0.158-0.848-0.329-0.848-0.329s0.311-0.62,0.707-1.16C138.744,4.974,139.066,5.317,139.066,5.317L139.066,5.317z
		 M138.32,5.255c0,0-0.567,0.533-0.818,1.021c-0.251,0.487-0.594,0.956-0.594,0.956s-0.439-0.188-0.738-0.409
		c-0.298-0.219-0.457-0.376-0.457-0.376s0.484-0.551,1.349-0.864C137.925,5.271,138.32,5.255,138.32,5.255L138.32,5.255z
		 M136.029,5.539c0.457-0.11,0.815-0.14,0.815-0.14s-0.501,0.249-0.784,0.468c-0.283,0.22-0.534,0.378-0.534,0.378
		s-0.137-0.096-0.204-0.206c-0.063-0.109-0.095-0.25-0.095-0.25S135.572,5.647,136.029,5.539L136.029,5.539z M138.736,28.942
		c-5.998,0-11.881-4.782-11.881-11.812c0-8.813,8.013-11.231,8.013-11.231l0.485,0.454c0,0-0.427,0.278-0.771,0.643
		c-0.342,0.361-0.549,0.674-0.549,0.674l0.207,0.189c0,0,0.248-0.365,0.53-0.645c0.284-0.281,0.692-0.61,0.692-0.61
		s0.411,0.422,0.675,0.58c0.265,0.158,0.642,0.329,0.642,0.329s-0.031,0.205-0.141,0.456c-0.109,0.25-0.22,0.58-0.22,0.58
		l0.251,0.141c0,0,0.175-0.485,0.266-0.674c0.094-0.188,0.172-0.376,0.172-0.376s0.6,0.25,1.116,0.361
		c0.518,0.109,0.893,0.095,0.893,0.095v2.102h-0.769v0.358h0.795v2.636h-0.666v0.298h0.648v0.97h0.321v-0.94
		c0,0,0.421,0.018,1.521-0.03c1.1-0.049,1.806-0.157,1.806-0.157s-0.031-1.004-0.126-1.741c-0.097-0.738-0.252-1.302-0.252-1.302
		s0.626-0.079,1.317-0.36c0.693-0.282,1.283-0.548,1.283-0.548s0.365,0.531,0.646,1.286c0.279,0.754,0.547,1.518,0.547,1.518
		l-0.468,0.206l0.079,0.235l0.543-0.162l0.156,0.328l0.207-0.092l-0.152-0.333c0,0,0.645-0.193,1.287-0.54
		c0.645-0.347,1.115-0.674,1.115-0.674s1.615,2.46,1.615,5.952C150.572,22.474,146.425,28.942,138.736,28.942"/>
	<path fill="none" stroke="#000000" stroke-width="0.8169" d="M127.689,14.928"/>
	<path fill="none" stroke="#000000" stroke-width="0.8169" d="M129.886,10.155"/>
	<path fill="#FFFFFF" d="M21.049,33.539v-3.084l-0.08-0.082c-1.502,2.477-3.328,3.772-6.735,3.772c-3.122,0-6.896-1.499-6.896-6.57
		V12.323h3.57V26.4c0,3.486,1.785,4.662,4.098,4.662c4.502,0,5.841-3.975,5.841-7.057V12.323h3.569v21.216H21.049"/>
	<path fill="#FFFFFF" d="M47.051,33.539h-3.568V20.476c0-3.691-1.055-5.556-4.545-5.556c-2.027,0-5.598,1.296-5.598,7.057v11.562
		h-3.57V12.323h3.367v3.002h0.081c0.772-1.137,2.759-3.611,6.411-3.611c3.283,0,7.422,1.338,7.422,7.384V33.539"/>
	<path fill="#FFFFFF" d="M52.406,8.469V4.413h3.568v4.056H52.406L52.406,8.469z M55.975,33.539h-3.568V12.323h3.568V33.539"/>
	<path fill="#FFFFFF" d="M74.596,19.462c-0.446-2.839-2.029-4.542-5.029-4.542c-4.423,0-5.843,4.216-5.843,7.99
		c0,3.65,0.893,8.152,5.8,8.152c2.396,0,4.465-1.783,5.072-5.028h3.447c-0.365,3.366-2.436,8.111-8.641,8.111
		c-5.964,0-9.49-4.501-9.49-10.627c0-6.571,3.162-11.804,10.18-11.804c5.558,0,7.669,4.057,7.951,7.748H74.596"/>
	<path fill="#FFFFFF" d="M99.623,26.887c-0.121,1.014-1.095,4.016-3.772,5.799c-0.973,0.648-2.352,1.46-5.759,1.46
		c-5.963,0-9.493-4.501-9.493-10.627c0-6.571,3.163-11.804,10.183-11.804c6.125,0,9.128,4.867,9.128,12.372H84.413
		c0,4.422,2.067,6.977,6.165,6.977c3.368,0,5.355-2.596,5.476-4.176H99.623L99.623,26.887z M96.217,21.246
		c-0.203-3.284-1.582-6.326-5.922-6.326c-3.287,0-5.882,3.042-5.882,6.326H96.217"/>
	<path fill="#FFFFFF" d="M108.589,15.283v18.256h-3.57V15.283h-2.92v-2.96h2.92V8.67c0-3.203,2.028-4.662,5.517-4.662
		c0.527,0,1.057,0.038,1.625,0.081v3.205c-0.449-0.042-1.017-0.083-1.463-0.083c-1.54,0-2.108,0.771-2.108,2.474v2.637h3.571v2.96
		H108.589"/>
</g>
<g>
	<path fill="#212121" d="M168.803,6.604h3.705c1.619,0.04,2.844,0.5,3.674,1.38c0.83,0.88,1.246,2.205,1.246,3.975
		s-0.416,3.095-1.246,3.975s-2.055,1.34-3.674,1.38h-3.705V6.604z M169.822,16.443h2.175c0.771,0,1.433-0.083,1.987-0.248
		s1.013-0.427,1.373-0.787c0.359-0.36,0.625-0.825,0.795-1.395c0.17-0.57,0.255-1.255,0.255-2.055c0-0.8-0.085-1.485-0.255-2.055
		c-0.17-0.57-0.436-1.035-0.795-1.395c-0.36-0.36-0.818-0.623-1.373-0.787c-0.555-0.165-1.217-0.248-1.987-0.248h-2.175V16.443z"/>
	<path fill="#212121" d="M179.452,13.698c0,0.351,0.05,0.705,0.149,1.065c0.101,0.36,0.25,0.685,0.451,0.975
		c0.199,0.291,0.462,0.53,0.787,0.72c0.324,0.19,0.713,0.285,1.162,0.285c0.689,0,1.23-0.183,1.62-0.548
		c0.39-0.365,0.66-0.842,0.81-1.432h0.945c-0.2,0.88-0.567,1.563-1.103,2.047s-1.292,0.728-2.272,0.728c-0.62,0-1.15-0.11-1.59-0.33
		c-0.44-0.22-0.801-0.518-1.08-0.893c-0.28-0.375-0.487-0.81-0.623-1.305c-0.135-0.495-0.202-1.017-0.202-1.567
		c0-0.51,0.067-1.01,0.202-1.5c0.136-0.49,0.343-0.927,0.623-1.313c0.279-0.385,0.64-0.695,1.08-0.93
		c0.439-0.235,0.97-0.353,1.59-0.353s1.15,0.125,1.59,0.375c0.44,0.25,0.798,0.577,1.072,0.982c0.275,0.405,0.473,0.87,0.593,1.395
		s0.17,1.058,0.15,1.597H179.452z M184.462,12.903c-0.01-0.36-0.072-0.705-0.188-1.035c-0.114-0.33-0.277-0.623-0.487-0.877
		c-0.21-0.255-0.465-0.46-0.766-0.615c-0.299-0.155-0.64-0.232-1.02-0.232c-0.39,0-0.734,0.078-1.035,0.232
		c-0.3,0.155-0.555,0.36-0.765,0.615c-0.21,0.255-0.378,0.55-0.503,0.885s-0.207,0.678-0.247,1.027H184.462z"/>
	<path fill="#212121" d="M186.697,6.604h0.945v10.71h-0.945V6.604z"/>
	<path fill="#212121" d="M189.457,9.573h0.87v1.47h0.03c0.22-0.53,0.577-0.945,1.072-1.245c0.495-0.3,1.058-0.45,1.688-0.45
		c0.59,0,1.103,0.11,1.537,0.33c0.436,0.22,0.798,0.517,1.088,0.892s0.505,0.81,0.645,1.305c0.141,0.495,0.211,1.018,0.211,1.567
		c0,0.55-0.07,1.073-0.211,1.567c-0.14,0.495-0.354,0.93-0.645,1.305s-0.652,0.673-1.088,0.893c-0.435,0.22-0.947,0.33-1.537,0.33
		c-0.29,0-0.572-0.035-0.848-0.105c-0.275-0.07-0.532-0.178-0.772-0.323c-0.239-0.145-0.452-0.322-0.638-0.532
		s-0.328-0.455-0.428-0.735h-0.029v4.335h-0.945V9.573z M195.652,13.443c0-0.4-0.048-0.797-0.143-1.192
		c-0.096-0.395-0.245-0.748-0.45-1.058c-0.205-0.31-0.468-0.563-0.788-0.757c-0.319-0.195-0.705-0.292-1.154-0.292
		c-0.52,0-0.955,0.09-1.305,0.27c-0.351,0.18-0.631,0.42-0.84,0.72c-0.211,0.3-0.358,0.65-0.443,1.05s-0.127,0.82-0.127,1.26
		c0,0.4,0.047,0.798,0.143,1.192c0.095,0.396,0.25,0.748,0.465,1.058c0.215,0.31,0.494,0.563,0.84,0.758
		c0.346,0.195,0.768,0.292,1.268,0.292c0.449,0,0.835-0.098,1.154-0.292c0.32-0.195,0.583-0.448,0.788-0.758
		c0.205-0.31,0.354-0.662,0.45-1.058C195.604,14.241,195.652,13.844,195.652,13.443z"/>
	<path fill="#212121" d="M198.052,6.604h0.945v4.305h0.03c0.09-0.23,0.217-0.443,0.383-0.638c0.164-0.195,0.357-0.36,0.576-0.495
		c0.221-0.135,0.461-0.24,0.721-0.315s0.525-0.112,0.795-0.112c0.54,0,0.992,0.07,1.357,0.21s0.658,0.337,0.877,0.592
		c0.221,0.255,0.375,0.568,0.466,0.938c0.09,0.37,0.135,0.785,0.135,1.245v4.98h-0.944v-4.83c0-0.33-0.031-0.637-0.091-0.922
		s-0.165-0.533-0.315-0.743c-0.149-0.21-0.352-0.375-0.607-0.495c-0.254-0.12-0.572-0.18-0.952-0.18s-0.718,0.067-1.013,0.203
		c-0.295,0.135-0.547,0.32-0.757,0.555c-0.21,0.235-0.37,0.515-0.48,0.84c-0.11,0.325-0.17,0.677-0.18,1.057v4.515h-0.945V6.604z"/>
	<path fill="#212121" d="M206.137,6.619h0.945v1.5h-0.945V6.619z M206.137,9.573h0.945v7.74h-0.945V9.573z"/>
	<path fill="#212121" d="M213.727,13.789c-0.01,0.55,0.074,1.01,0.255,1.38c0.181,0.37,0.428,0.665,0.743,0.885
		c0.314,0.22,0.688,0.377,1.117,0.472c0.43,0.095,0.89,0.143,1.38,0.143c0.28,0,0.585-0.04,0.915-0.12
		c0.33-0.08,0.637-0.208,0.922-0.382s0.523-0.4,0.713-0.675c0.189-0.275,0.285-0.608,0.285-0.998c0-0.3-0.068-0.56-0.203-0.78
		c-0.135-0.22-0.31-0.405-0.524-0.555c-0.216-0.15-0.452-0.272-0.712-0.368c-0.261-0.095-0.516-0.172-0.766-0.232l-2.385-0.585
		c-0.32-0.08-0.625-0.18-0.916-0.3c-0.289-0.12-0.545-0.28-0.764-0.48c-0.221-0.2-0.398-0.445-0.533-0.735s-0.203-0.645-0.203-1.065
		c0-0.26,0.051-0.565,0.15-0.915s0.287-0.68,0.563-0.99c0.275-0.31,0.652-0.572,1.133-0.787c0.48-0.215,1.096-0.323,1.846-0.323
		c0.529,0,1.034,0.07,1.514,0.21c0.48,0.14,0.902,0.35,1.268,0.63c0.365,0.28,0.652,0.628,0.863,1.042
		c0.21,0.416,0.314,0.898,0.314,1.448h-1.02c-0.021-0.41-0.11-0.768-0.27-1.073c-0.16-0.305-0.375-0.56-0.646-0.765
		s-0.577-0.36-0.923-0.465c-0.345-0.105-0.707-0.157-1.088-0.157c-0.35,0-0.688,0.038-1.012,0.112
		c-0.325,0.075-0.61,0.195-0.855,0.36c-0.244,0.165-0.442,0.382-0.592,0.652c-0.15,0.27-0.226,0.605-0.226,1.005
		c0,0.25,0.042,0.468,0.128,0.652c0.084,0.186,0.202,0.34,0.352,0.465c0.15,0.125,0.323,0.23,0.518,0.315
		c0.195,0.085,0.402,0.152,0.623,0.203l2.609,0.645c0.381,0.1,0.738,0.223,1.073,0.367c0.335,0.145,0.63,0.325,0.885,0.54
		c0.255,0.215,0.455,0.478,0.601,0.788c0.145,0.31,0.217,0.685,0.217,1.125c0,0.12-0.012,0.28-0.037,0.48
		c-0.025,0.2-0.085,0.413-0.18,0.638c-0.096,0.225-0.23,0.452-0.405,0.682c-0.175,0.23-0.415,0.44-0.72,0.63
		c-0.306,0.19-0.684,0.342-1.133,0.458c-0.45,0.115-0.99,0.172-1.62,0.172s-1.215-0.073-1.755-0.218c-0.54-0.145-1-0.37-1.38-0.675
		s-0.673-0.695-0.878-1.17s-0.293-1.038-0.262-1.688H213.727z"/>
	<path fill="#212121" d="M228.787,17.313h-0.871v-1.395h-0.029c-0.25,0.52-0.613,0.92-1.088,1.2s-1.002,0.42-1.582,0.42
		c-0.49,0-0.908-0.067-1.252-0.203c-0.346-0.135-0.625-0.33-0.841-0.585c-0.215-0.255-0.372-0.565-0.472-0.93
		c-0.101-0.365-0.15-0.772-0.15-1.222V9.573h0.945v5.04c0.02,0.7,0.182,1.23,0.486,1.59c0.306,0.36,0.833,0.54,1.583,0.54
		c0.399,0,0.747-0.087,1.042-0.263c0.295-0.175,0.538-0.407,0.729-0.697c0.189-0.29,0.33-0.623,0.42-0.998s0.135-0.758,0.135-1.147
		V9.573h0.945V17.313z"/>
	<path fill="#212121" d="M230.571,9.573h0.87v1.815h0.029c0.24-0.63,0.613-1.115,1.118-1.455s1.107-0.495,1.808-0.465v0.945
		c-0.43-0.02-0.82,0.038-1.17,0.172c-0.35,0.135-0.652,0.328-0.908,0.578c-0.254,0.25-0.452,0.55-0.592,0.9
		c-0.141,0.35-0.21,0.725-0.21,1.125v4.125h-0.945V9.573z"/>
	<path fill="#212121" d="M234.426,9.573h1.051l2.43,6.795h0.029l2.4-6.795h0.975l-2.895,7.74h-1.005L234.426,9.573z"/>
	<path fill="#212121" d="M242.797,13.698c0,0.351,0.049,0.705,0.149,1.065c0.101,0.36,0.25,0.685,0.45,0.975
		c0.199,0.291,0.463,0.53,0.787,0.72c0.325,0.19,0.713,0.285,1.162,0.285c0.69,0,1.23-0.183,1.621-0.548
		c0.39-0.365,0.66-0.842,0.81-1.432h0.944c-0.199,0.88-0.566,1.563-1.102,2.047s-1.293,0.728-2.273,0.728
		c-0.619,0-1.149-0.11-1.59-0.33c-0.439-0.22-0.8-0.518-1.08-0.893c-0.279-0.375-0.486-0.81-0.622-1.305
		c-0.135-0.495-0.202-1.017-0.202-1.567c0-0.51,0.067-1.01,0.202-1.5c0.136-0.49,0.343-0.927,0.622-1.313
		c0.28-0.385,0.641-0.695,1.08-0.93c0.44-0.235,0.971-0.353,1.59-0.353c0.621,0,1.15,0.125,1.591,0.375s0.798,0.577,1.072,0.982
		c0.274,0.405,0.473,0.87,0.593,1.395c0.119,0.525,0.17,1.058,0.15,1.597H242.797z M247.807,12.903
		c-0.01-0.36-0.072-0.705-0.188-1.035c-0.115-0.33-0.277-0.623-0.488-0.877c-0.209-0.255-0.465-0.46-0.765-0.615
		c-0.3-0.155-0.64-0.232-1.021-0.232c-0.389,0-0.734,0.078-1.034,0.232c-0.3,0.155-0.556,0.36-0.765,0.615
		c-0.211,0.255-0.378,0.55-0.503,0.885c-0.126,0.335-0.208,0.678-0.247,1.027H247.807z"/>
	<path fill="#212121" d="M249.156,9.573h1.005l2.55,6.6l2.385-6.6h0.945l-3.359,8.925c-0.141,0.33-0.269,0.602-0.383,0.817
		c-0.115,0.215-0.248,0.385-0.398,0.51c-0.149,0.125-0.322,0.215-0.518,0.27c-0.194,0.055-0.441,0.083-0.742,0.083
		c-0.189-0.01-0.337-0.018-0.442-0.023c-0.104-0.005-0.197-0.022-0.277-0.052v-0.795c0.11,0.02,0.218,0.038,0.323,0.052
		c0.104,0.015,0.212,0.022,0.322,0.022c0.209,0,0.382-0.03,0.518-0.09c0.135-0.06,0.252-0.143,0.352-0.248s0.186-0.232,0.256-0.382
		c0.069-0.15,0.145-0.315,0.225-0.495l0.33-0.885L249.156,9.573z"/>
	<path fill="#212121" d="M167.723,22.604h1.095l2.43,9.375h0.03l2.609-9.375h1.275l2.625,9.375h0.03l2.444-9.375h1.021l-2.955,10.71
		h-1.08l-2.715-9.585h-0.03l-2.699,9.585h-1.11L167.723,22.604z"/>
	<path fill="#212121" d="M185.227,25.349c0.59,0,1.113,0.11,1.568,0.33s0.837,0.515,1.146,0.885c0.311,0.37,0.545,0.806,0.705,1.306
		s0.24,1.024,0.24,1.574c0,0.561-0.08,1.088-0.24,1.582c-0.16,0.496-0.395,0.928-0.705,1.298c-0.31,0.37-0.691,0.665-1.146,0.886
		c-0.455,0.219-0.979,0.33-1.568,0.33s-1.111-0.111-1.566-0.33c-0.455-0.221-0.838-0.516-1.148-0.886
		c-0.31-0.37-0.545-0.802-0.705-1.298c-0.16-0.494-0.24-1.021-0.24-1.582c0-0.55,0.08-1.074,0.24-1.574s0.396-0.936,0.705-1.306
		c0.311-0.37,0.693-0.665,1.148-0.885S184.637,25.349,185.227,25.349z M185.227,26.144c-0.449,0-0.845,0.095-1.185,0.285
		s-0.622,0.44-0.847,0.75c-0.226,0.31-0.396,0.662-0.511,1.058c-0.115,0.395-0.173,0.797-0.173,1.207s0.058,0.813,0.173,1.207
		c0.114,0.396,0.285,0.748,0.511,1.059c0.225,0.31,0.507,0.56,0.847,0.75c0.34,0.189,0.735,0.285,1.185,0.285
		c0.451,0,0.846-0.096,1.186-0.285c0.34-0.19,0.623-0.44,0.848-0.75c0.225-0.311,0.395-0.663,0.51-1.059
		c0.115-0.395,0.172-0.797,0.172-1.207s-0.057-0.813-0.172-1.207c-0.115-0.396-0.285-0.748-0.51-1.058s-0.508-0.56-0.848-0.75
		S185.678,26.144,185.227,26.144z"/>
	<path fill="#212121" d="M190.297,25.573h0.871v1.815h0.029c0.24-0.631,0.613-1.115,1.117-1.455c0.506-0.34,1.107-0.495,1.809-0.465
		v0.945c-0.431-0.021-0.82,0.037-1.17,0.172c-0.351,0.135-0.653,0.328-0.908,0.578s-0.453,0.549-0.592,0.899
		c-0.141,0.351-0.211,0.726-0.211,1.125v4.125h-0.945V25.573z"/>
	<path fill="#212121" d="M195.021,22.604h0.945v6.72l4.29-3.75h1.261l-3.301,2.865l3.525,4.875h-1.186l-3.06-4.215l-1.53,1.274v2.94
		h-0.945V22.604z"/>
	<path fill="#212121" d="M207.157,27.838c-0.011-0.289-0.07-0.542-0.181-0.757c-0.109-0.215-0.257-0.393-0.441-0.532
		c-0.186-0.141-0.398-0.242-0.639-0.308c-0.239-0.065-0.494-0.098-0.765-0.098c-0.21,0-0.423,0.022-0.638,0.067
		c-0.215,0.046-0.412,0.121-0.592,0.227s-0.325,0.244-0.436,0.415c-0.109,0.171-0.164,0.382-0.164,0.634
		c0,0.211,0.052,0.39,0.156,0.535c0.105,0.146,0.238,0.27,0.398,0.37s0.334,0.183,0.524,0.249c0.19,0.064,0.365,0.117,0.525,0.158
		l1.26,0.283c0.271,0.041,0.538,0.113,0.803,0.217c0.265,0.105,0.5,0.242,0.705,0.412c0.204,0.169,0.372,0.379,0.503,0.627
		c0.129,0.25,0.194,0.544,0.194,0.883c0,0.419-0.095,0.775-0.285,1.069s-0.433,0.533-0.728,0.718
		c-0.295,0.184-0.627,0.318-0.997,0.404c-0.37,0.084-0.735,0.127-1.095,0.127c-0.91,0-1.648-0.219-2.213-0.653
		c-0.565-0.435-0.888-1.127-0.968-2.077h0.945c0.04,0.641,0.272,1.123,0.697,1.447c0.425,0.325,0.952,0.488,1.583,0.488
		c0.219,0,0.455-0.025,0.705-0.076c0.25-0.049,0.479-0.135,0.689-0.254c0.21-0.121,0.383-0.273,0.518-0.458s0.203-0.413,0.203-0.683
		c0-0.22-0.049-0.41-0.143-0.57c-0.096-0.16-0.223-0.292-0.383-0.396c-0.16-0.105-0.343-0.193-0.548-0.264
		c-0.205-0.069-0.413-0.129-0.622-0.18l-1.215-0.27c-0.311-0.08-0.596-0.173-0.855-0.277c-0.26-0.105-0.487-0.235-0.683-0.391
		c-0.194-0.154-0.348-0.345-0.458-0.57c-0.109-0.225-0.164-0.502-0.164-0.832c0-0.391,0.087-0.725,0.262-1.005
		c0.176-0.28,0.402-0.505,0.684-0.675c0.279-0.17,0.592-0.295,0.938-0.375c0.344-0.08,0.687-0.12,1.027-0.12
		c0.39,0,0.752,0.05,1.087,0.149c0.335,0.101,0.63,0.256,0.886,0.465c0.254,0.211,0.457,0.471,0.607,0.781
		c0.149,0.31,0.234,0.674,0.254,1.094H207.157z"/>
	<path fill="#212121" d="M209.722,22.604h0.945v4.305h0.03c0.09-0.229,0.217-0.442,0.383-0.637c0.164-0.195,0.357-0.36,0.576-0.496
		c0.221-0.135,0.461-0.239,0.721-0.314s0.525-0.112,0.795-0.112c0.54,0,0.992,0.069,1.357,0.21s0.658,0.338,0.877,0.592
		c0.221,0.256,0.375,0.568,0.466,0.938c0.09,0.371,0.135,0.785,0.135,1.246v4.979h-0.944v-4.83c0-0.33-0.031-0.638-0.091-0.923
		s-0.165-0.532-0.315-0.742c-0.149-0.21-0.352-0.375-0.607-0.495c-0.254-0.12-0.572-0.18-0.952-0.18s-0.718,0.067-1.013,0.202
		s-0.547,0.32-0.757,0.555c-0.21,0.236-0.37,0.516-0.48,0.841s-0.17,0.677-0.18,1.058v4.515h-0.945V22.604z"/>
	<path fill="#212121" d="M221.062,25.349c0.59,0,1.112,0.11,1.567,0.33s0.838,0.515,1.147,0.885s0.545,0.806,0.705,1.306
		s0.24,1.024,0.24,1.574c0,0.561-0.08,1.088-0.24,1.582c-0.16,0.496-0.396,0.928-0.705,1.298s-0.692,0.665-1.147,0.886
		c-0.455,0.219-0.978,0.33-1.567,0.33s-1.112-0.111-1.567-0.33c-0.455-0.221-0.838-0.516-1.147-0.886s-0.546-0.802-0.705-1.298
		c-0.16-0.494-0.24-1.021-0.24-1.582c0-0.55,0.08-1.074,0.24-1.574c0.159-0.5,0.396-0.936,0.705-1.306s0.692-0.665,1.147-0.885
		S220.472,25.349,221.062,25.349z M221.062,26.144c-0.45,0-0.845,0.095-1.185,0.285s-0.623,0.44-0.848,0.75s-0.396,0.662-0.51,1.058
		c-0.115,0.395-0.173,0.797-0.173,1.207s0.058,0.813,0.173,1.207c0.114,0.396,0.285,0.748,0.51,1.059
		c0.225,0.31,0.508,0.56,0.848,0.75c0.34,0.189,0.734,0.285,1.185,0.285s0.845-0.096,1.185-0.285c0.34-0.19,0.623-0.44,0.848-0.75
		c0.226-0.311,0.396-0.663,0.51-1.059c0.115-0.395,0.173-0.797,0.173-1.207s-0.058-0.813-0.173-1.207
		c-0.114-0.396-0.284-0.748-0.51-1.058c-0.225-0.31-0.508-0.56-0.848-0.75S221.512,26.144,221.062,26.144z"/>
	<path fill="#212121" d="M226.132,25.573h0.87v1.47h0.029c0.221-0.529,0.578-0.944,1.073-1.244c0.495-0.301,1.058-0.45,1.688-0.45
		c0.59,0,1.103,0.11,1.538,0.33c0.435,0.22,0.797,0.517,1.087,0.892s0.505,0.811,0.646,1.306c0.139,0.495,0.209,1.018,0.209,1.567
		c0,0.551-0.07,1.072-0.209,1.567c-0.141,0.495-0.355,0.931-0.646,1.306s-0.652,0.672-1.087,0.893
		c-0.436,0.219-0.948,0.33-1.538,0.33c-0.29,0-0.573-0.035-0.848-0.105s-0.532-0.178-0.772-0.322s-0.453-0.322-0.637-0.533
		c-0.186-0.209-0.328-0.455-0.428-0.734h-0.03v4.335h-0.945V25.573z M232.327,29.443c0-0.4-0.048-0.797-0.143-1.192
		s-0.245-0.747-0.45-1.058c-0.205-0.31-0.467-0.563-0.787-0.758c-0.32-0.194-0.705-0.292-1.155-0.292
		c-0.521,0-0.955,0.09-1.306,0.271c-0.35,0.18-0.629,0.42-0.84,0.719c-0.209,0.301-0.357,0.65-0.441,1.051
		c-0.086,0.4-0.128,0.82-0.128,1.26c0,0.4,0.048,0.798,0.142,1.192c0.096,0.396,0.25,0.748,0.466,1.058
		c0.215,0.311,0.495,0.563,0.84,0.758s0.768,0.293,1.268,0.293c0.45,0,0.835-0.098,1.155-0.293s0.582-0.447,0.787-0.758
		c0.205-0.31,0.355-0.662,0.45-1.058C232.279,30.241,232.327,29.844,232.327,29.443z"/>
</g>
<g>
</g>
<g>
</g>
<g>
</g>
<g>
</g>
<g>
</g>
<g>
</g>
<g>
</g>
<g>
</g>
<g>
</g>
<g>
</g>
<g>
</g>
<g>
</g>
<g>
</g>
<g>
</g>
<g>
</g>
</svg>
